<svg xmlns="http://www.w3.org/2000/svg">
<defs>
<font id="SkinnyJeans" horiz-adv-x="781" >
  <font-face 
    font-family="Skinny Jeans"
    font-weight="400"
    font-stretch="normal"
    units-per-em="1000"
    panose-1="0 0 0 0 0 0 0 0 0 0"
    ascent="895"
    descent="-105"
    x-height="727"
    cap-height="729"
    bbox="5 -107 745 844"
    underline-thickness="50"
    underline-position="-49"
    unicode-range="U+001D-U+007A"
  />
<missing-glyph 
d="M379 368l-33 -58.5l-34 -61.5q-51 21 -82 66q-16 22 -26.5 50t-10.5 63q0 36 10.5 64t25.5 50q31 43 83 66v-127h67v211q-61 -3 -104 -25t-75 -54q-30 -30 -52 -77q-10 -23 -16.5 -49t-6.5 -57q0 -48 13 -83.5t32 -64.5q39 -58 103 -91q11 -5 22.5 -9.5t24.5 -7.5
q25 -7 56 -9h2h1v5v199zM396 486l33 58l34 62q51 -23 82 -67q16 -22 26.5 -49.5t10.5 -63.5q0 -35 -10.5 -63.5t-25.5 -49.5q-31 -44 -83 -67v128h-67v-211q61 3 104 25t75 54q33 33 52 77q10 22 16.5 48.5t6.5 56.5q0 48 -12.5 84t-32.5 65t-45.5 51.5t-57.5 38.5
q-20 10 -47 18q-13 3 -27 5.5t-29 2.5q1 0 -0.5 0.5t-2.5 0.5v-5v-199zM391 73q-72 0 -136 26.5t-115 77.5t-77.5 115t-26.5 136t26.5 136t77.5 114q51 51 115 77.5t136 26.5q71 0 135 -26.5t115 -77.5q51 -50 77.5 -114t26.5 -136t-26.5 -136t-77.5 -115t-115 -77.5
t-135 -26.5zM391 748q-66 0 -124.5 -25t-102 -68.5t-69 -102t-25.5 -124.5t25.5 -124.5t69 -102t102 -69t124.5 -25.5t124 25.5t101.5 69t69 102t25.5 124.5t-25.5 124.5t-69 102t-101.5 68.5t-124 25zM235 410l10 -2q-3 -8 -9 -12q-8 -4 -13 -4q-7 0 -14 5q-5 7 -5 15
q0 7 4 15q3 7 9 10q5 4 12 4q5 0 13 -4q5 -5 5 -11l-9 -1l-3 6q-2 1 -6 1q-5 0 -7 -2q-5 -3 -6 -8q-2 -6 -2 -10q0 -6 3 -9q1 -3 6 -3q4 0 7 3q3 2 5 7zM281 414h-18l-5 -21h-10l10 47h10l-4 -18h18l4 18h10l-10 -47h-10zM306 393h-10l10 47h21q6 0 8 -1q4 -2 5 -4
q2 -4 2 -7q0 -7 -4 -10q-2 -3 -11 -5l4 -4q2 -3 3.5 -7l3.5 -9h-10q-1 2 -2 5t-3 7q-2 2 -2.5 4t-2.5 3h-4h-4zM311 420h5h11q1 1 2 1.5t2 1.5q1 2 1 5t-2 3q-1 1 -6 1h-10zM343 393l10 47h9l-10 -47h-9zM363 408l9 1q0 -4 2 -6q1 -3 7 -3q5 0 7 2q2 1 2 4t-1 4q-1 0 -7 3

<glyph glyph-name=".notdef" 
d="M379 368l-33 -58.5l-34 -61.5q-51 21 -82 66q-16 22 -26.5 50t-10.5 63q0 36 10.5 64t25.5 50q31 43 83 66v-127h67v211q-61 -3 -104 -25t-75 -54q-30 -30 -52 -77q-10 -23 -16.5 -49t-6.5 -57q0 -48 13 -83.5t32 -64.5q39 -58 103 -91q11 -5 22.5 -9.5t24.5 -7.5
q25 -7 56 -9h2h1v5v199zM396 486l33 58l34 62q51 -23 82 -67q16 -22 26.5 -49.5t10.5 -63.5q0 -35 -10.5 -63.5t-25.5 -49.5q-31 -44 -83 -67v128h-67v-211q61 3 104 25t75 54q33 33 52 77q10 22 16.5 48.5t6.5 56.5q0 48 -12.5 84t-32.5 65t-45.5 51.5t-57.5 38.5
q-20 10 -47 18q-13 3 -27 5.5t-29 2.5q1 0 -0.5 0.5t-2.5 0.5v-5v-199zM391 73q-72 0 -136 26.5t-115 77.5t-77.5 115t-26.5 136t26.5 136t77.5 114q51 51 115 77.5t136 26.5q71 0 135 -26.5t115 -77.5q51 -50 77.5 -114t26.5 -136t-26.5 -136t-77.5 -115t-115 -77.5
t-135 -26.5zM391 748q-66 0 -124.5 -25t-102 -68.5t-69 -102t-25.5 -124.5t25.5 -124.5t69 -102t102 -69t124.5 -25.5t124 25.5t101.5 69t69 102t25.5 124.5t-25.5 124.5t-69 102t-101.5 68.5t-124 25zM235 410l10 -2q-3 -8 -9 -12q-8 -4 -13 -4q-7 0 -14 5q-5 7 -5 15
q0 7 4 15q3 7 9 10q5 4 12 4q5 0 13 -4q5 -5 5 -11l-9 -1l-3 6q-2 1 -6 1q-5 0 -7 -2q-5 -3 -6 -8q-2 -6 -2 -10q0 -6 3 -9q1 -3 6 -3q4 0 7 3q3 2 5 7zM281 414h-18l-5 -21h-10l10 47h10l-4 -18h18l4 18h10l-10 -47h-10zM306 393h-10l10 47h21q6 0 8 -1q4 -2 5 -4
q2 -4 2 -7q0 -7 -4 -10q-2 -3 -11 -5l4 -4q2 -3 3.5 -7l3.5 -9h-10q-1 2 -2 5t-3 7q-2 2 -2.5 4t-2.5 3h-4h-4zM311 420h5h11q1 1 2 1.5t2 1.5q1 2 1 5t-2 3q-1 1 -6 1h-10zM343 393l10 47h9l-10 -47h-9zM363 408l9 1q0 -4 2 -6q1 -3 7 -3q5 0 7 2q2 1 2 4t-1 4q-1 0 -7 3
l-8 4q-3 1 -4 4q-1 2 -1 6q0 6 4 10t12 4q9 0 13 -4q5 -5 5 -10l-9 -1q0 3 -3 5q-1 2 -6 2q-4 0 -5 -1q-2 -1 -2 -4q0 -2 1 -3t3 -1.5t4 -2.5q5 -2 7 -3l4 -2q3 -5 3 -9q0 -5 -5 -10t-14 -5q-4 0 -10 2q-5 3 -6 6q-2 2 -2 8zM447 393h-10l-9 47h10l6 -36l19 36h10zM467 393
l10 47h9l-10 -47h-9zM486 393l10 47h9l-8 -39h24l-2 -8h-33zM526 393l9 47h35l-1 -8h-26l-2 -10h24l-1 -8h-24l-3 -13h27l-2 -8h-36zM210 449l2 13h4l1 -1h2h1q0 -1 1 -1v-2v-2v-3l-2 -2l-2 -1q-1 -1 -3 -1h-4zM213 451h1q2 0 2 1h1q1 1 1 2q1 1 1 3q0 1 -1 1q0 1 -1 1
q0 1 -1 1h-2zM222 449l3 13h9l-1 -3h-6l-1 -2h6v-2h-6l-1 -4h7l-1 -2h-9zM234 453h2v-1q1 -1 2 -1q2 0 2 1q1 0 1 1l-1 1l-1 1q-2 0 -2 1q-1 0 -1 1l-1 1q0 1 0.5 1.5t0.5 1.5q1 0 1.5 0.5t1.5 0.5q2 0 2.5 -0.5t1.5 -0.5q1 -1 1 -3h-2l-1 1q0 1 -2 1q-1 0 -1 -1v-1
q0 -1 2 -1l2 -2q1 0 1 -2t-1 -3q-1 0 -1.5 -0.5t-2.5 -0.5q-1 0 -2 1l-2 1v2zM245 449l2 13h3l-3 -13h-2zM256 456h5l-1 -5q0 -1 -2 -1q-1 -1 -3 -1q-1 0 -1.5 0.5t-1.5 0.5q-2 2 -2 4q0 3 1 4q0 1 2 3q1 0 1.5 0.5t2.5 0.5q1 0 1.5 -0.5t1.5 -0.5q2 -2 2 -3h-2l-1 1
q-1 1 -2 1l-2 -1q-2 0 -2 -2v-3v-2q1 0 1 -0.5t1 -0.5h2l1 1l1 2h-3v2zM272 449h-2l-3 9l-2 -9h-2l2 13h2l4 -9l1 9h3zM275 449l2 13h9v-3h-7v-2h6v-2h-7v-4h7l-1 -2h-9zM286 449l3 13h3q1 0 1 -0.5t1 -0.5h1h1l1 -1v-2q1 -1 1 -2t-0.5 -1.5t-0.5 -1.5l-2 -2q-1 -1 -2 -1
q-1 -1 -3 -1h-4zM289 451h1q2 0 2 1h1l2 2v3v1l-1 1q-1 0 -1 0.5t-1 0.5h-1zM303 449l2 13h5l1 -1h2l1 -1v-1v-2q-1 -1 -2 -1l1 -1q1 -1 1 -2t-1 -2l-1 -1q-1 0 -1.5 -0.5t-1.5 -0.5h-6zM306 451h2q2 0 2 1h1v1v1q-1 1 -2 1h-3v-4zM307 457h2h2l1 1q0 1 -1 1h-2h-2v-2z
M321 449h-2l1 5l-4 8h3l2 -4v-2l1 1l1 2l2 3h3l-6 -8zM396 448h-2l-1 9l-4 -9h-3v13h2v-9l5 9h2l1 -9l4 9h2zM412 448h-2l-1 9l-4 -9h-3v13h2v-9l5 9h2l1 -9l4 9h2zM428 448h-2l-1 9l-4 -9h-3v13h2v-9l5 9h2l1 -9l4 9h2zM432 451h2v-3h-3zM445 453l2 -1q0 -1 -2 -3
q-1 0 -1.5 -0.5t-1.5 -0.5q-2 0 -4 2q-1 0 -1 3t1 4q0 1 2 3q1 0 1.5 0.5t1.5 0.5t1 -0.5t1 -0.5h1q2 -2 2 -3h-3v1q-1 0 -1 0.5t-1 0.5q-1 -1 -2 -1q-1 -1 -1 -2q-1 -1 -1 -3q0 -1 0.5 -1t0.5 -1q1 -1 2 -1q1 1 2 1q0 1 1 2zM457 454h-5l-1 -6h-3l3 13h2l-1 -5h5l1 5h2
l-2 -13h-3zM463 448h-3l3 13h5q1 0 1.5 -0.5t1.5 -0.5l1 -1v-2q0 -2 -1 -2q0 -1 -2 -1v-2q2 -2 2 -4h-2l-2 4q0 1 -1 1h-1h-1zM464 455h2h2l1 1l1 1q0 1 -1 1q0 1 -1 1h-3zM473 448l2 13h3l-3 -13h-2zM478 452h2v-1q1 0 1 -0.5t1 -0.5q2 0 2 1q1 0 1 1l-1 1l-1 1q-2 0 -2 1
q-1 0 -1 1l-1 1q0 1 0.5 1.5t0.5 1.5q1 0 1.5 0.5t1.5 0.5q2 0 2.5 -0.5t1.5 -0.5q1 -1 1 -3h-2l-1 1q0 1 -2 1q-1 0 -1 -1v-1q0 -1 2 -1l2 -2q1 0 1 -2t-1 -3q-1 0 -1.5 -0.5t-2.5 -0.5q-1 0 -2 1l-2 1v2zM495 448h-3l-2 13h2l2 -10l5 10h2zM500 448l2 13h3l-3 -13h-2z
M505 448l2 13h3l-2 -11h6l-1 -2h-8zM515 448l2 13h9v-2h-6l-1 -3h6v-2h-6l-1 -4h7l-1 -2h-9zM527 451h2v-3h-3zM540 453l2 -1q0 -1 -2 -3q-1 0 -1.5 -0.5t-1.5 -0.5q-2 0 -4 2q-1 0 -1 3t1 4q0 1 2 3q1 0 1.5 0.5t1.5 0.5t1 -0.5t1 -0.5h1q2 -2 2 -3h-3v1q-1 0 -1 0.5
t-1 0.5t-1 -0.5t-1 -0.5q-1 -1 -1 -2q-1 -1 -1 -3q0 -1 1 -2t2 -1l1 1zM544 453v2q1 1 1 1.5t1 1.5q0 2 2 2q1 1 3 1q1 0 3 -2t2 -3q0 -2 -0.5 -2.5t-0.5 -1.5l-3 -3q-1 0 -1.5 -0.5t-1.5 -0.5q-2 0 -3 1l-2 2v2zM546 453q0 -1 0.5 -1t0.5 -1q1 0 1 -0.5t1 -0.5t1 0.5t1 0.5
l2 2v3q0 1 -1 2t-2 1q-2 0 -2 -2q-2 -2 -2 -4zM563 448h-2l-1 11l-1 -11h-3l3 13h3l1 -9l4 9h3l-2 -13h-2l2 10z" />
    <glyph glyph-name=".null" horiz-adv-x="0" 
 />
    <glyph glyph-name=".null" horiz-adv-x="0" 
 />
    <glyph glyph-name="nonmarkingreturn" horiz-adv-x="250" 
 />
    <glyph glyph-name="space" unicode=" " horiz-adv-x="250" 
 />
    <glyph glyph-name="exclam" unicode="!" horiz-adv-x="140" 
d="M84 54v-54h-28v54h28zM84 729v-611h-28v611h28z" />
    <glyph glyph-name="comma" unicode="," horiz-adv-x="145" 
d="M31 -80q2 0 11 1.5t19 9.5t18 24t8 45v54h27v-54q0 -40 -13 -61.5t-28.5 -31.5t-28.5 -12l-13 -2v27z" />
    <glyph glyph-name="period" unicode="." horiz-adv-x="113" 
d="M70 54v-54h-27v54h27z" />
    <glyph glyph-name="zero" unicode="0" 
d="M379 368l-33 -58.5l-34 -61.5q-51 21 -82 66q-16 22 -26.5 50t-10.5 63q0 36 10.5 64t25.5 50q31 43 83 66v-127h67v211q-61 -3 -104 -25t-75 -54q-30 -30 -52 -77q-10 -23 -16.5 -49t-6.5 -57q0 -48 13 -83.5t32 -64.5q39 -58 103 -91q11 -5 22.5 -9.5t24.5 -7.5
q25 -7 56 -9h2h1v5v199zM396 486l33 58l34 62q51 -23 82 -67q16 -22 26.5 -49.5t10.5 -63.5q0 -35 -10.5 -63.5t-25.5 -49.5q-31 -44 -83 -67v128h-67v-211q61 3 104 25t75 54q33 33 52 77q10 22 16.5 48.5t6.5 56.5q0 48 -12.5 84t-32.5 65t-45.5 51.5t-57.5 38.5
q-20 10 -47 18q-13 3 -27 5.5t-29 2.5q1 0 -0.5 0.5t-2.5 0.5v-5v-199zM391 73q-72 0 -136 26.5t-115 77.5t-77.5 115t-26.5 136t26.5 136t77.5 114q51 51 115 77.5t136 26.5q71 0 135 -26.5t115 -77.5q51 -50 77.5 -114t26.5 -136t-26.5 -136t-77.5 -115t-115 -77.5
t-135 -26.5zM391 748q-66 0 -124.5 -25t-102 -68.5t-69 -102t-25.5 -124.5t25.5 -124.5t69 -102t102 -69t124.5 -25.5t124 25.5t101.5 69t69 102t25.5 124.5t-25.5 124.5t-69 102t-101.5 68.5t-124 25zM235 410l10 -2q-3 -8 -9 -12q-8 -4 -13 -4q-7 0 -14 5q-5 7 -5 15
q0 7 4 15q3 7 9 10q5 4 12 4q5 0 13 -4q5 -5 5 -11l-9 -1l-3 6q-2 1 -6 1q-5 0 -7 -2q-5 -3 -6 -8q-2 -6 -2 -10q0 -6 3 -9q1 -3 6 -3q4 0 7 3q3 2 5 7zM281 414h-18l-5 -21h-10l10 47h10l-4 -18h18l4 18h10l-10 -47h-10zM306 393h-10l10 47h21q6 0 8 -1q4 -2 5 -4
q2 -4 2 -7q0 -7 -4 -10q-2 -3 -11 -5l4 -4q2 -3 3.5 -7l3.5 -9h-10q-1 2 -2 5t-3 7q-2 2 -2.5 4t-2.5 3h-4h-4zM311 420h5h11q1 1 2 1.5t2 1.5q1 2 1 5t-2 3q-1 1 -6 1h-10zM343 393l10 47h9l-10 -47h-9zM363 408l9 1q0 -4 2 -6q1 -3 7 -3q5 0 7 2q2 1 2 4t-1 4q-1 0 -7 3
l-8 4q-3 1 -4 4q-1 2 -1 6q0 6 4 10t12 4q9 0 13 -4q5 -5 5 -10l-9 -1q0 3 -3 5q-1 2 -6 2q-4 0 -5 -1q-2 -1 -2 -4q0 -2 1 -3t3 -1.5t4 -2.5q5 -2 7 -3l4 -2q3 -5 3 -9q0 -5 -5 -10t-14 -5q-4 0 -10 2q-5 3 -6 6q-2 2 -2 8zM447 393h-10l-9 47h10l6 -36l19 36h10zM467 393
l10 47h9l-10 -47h-9zM486 393l10 47h9l-8 -39h24l-2 -8h-33zM526 393l9 47h35l-1 -8h-26l-2 -10h24l-1 -8h-24l-3 -13h27l-2 -8h-36zM210 449l2 13h4l1 -1h2h1q0 -1 1 -1v-2v-2v-3l-2 -2l-2 -1q-1 -1 -3 -1h-4zM213 451h1q2 0 2 1h1q1 1 1 2q1 1 1 3q0 1 -1 1q0 1 -1 1
q0 1 -1 1h-2zM222 449l3 13h9l-1 -3h-6l-1 -2h6v-2h-6l-1 -4h7l-1 -2h-9zM234 453h2v-1q1 -1 2 -1q2 0 2 1q1 0 1 1l-1 1l-1 1q-2 0 -2 1q-1 0 -1 1l-1 1q0 1 0.5 1.5t0.5 1.5q1 0 1.5 0.5t1.5 0.5q2 0 2.5 -0.5t1.5 -0.5q1 -1 1 -3h-2l-1 1q0 1 -2 1q-1 0 -1 -1v-1
q0 -1 2 -1l2 -2q1 0 1 -2t-1 -3q-1 0 -1.5 -0.5t-2.5 -0.5q-1 0 -2 1l-2 1v2zM245 449l2 13h3l-3 -13h-2zM256 456h5l-1 -5q0 -1 -2 -1q-1 -1 -3 -1q-1 0 -1.5 0.5t-1.5 0.5q-2 2 -2 4q0 3 1 4q0 1 2 3q1 0 1.5 0.5t2.5 0.5q1 0 1.5 -0.5t1.5 -0.5q2 -2 2 -3h-2l-1 1
q-1 1 -2 1l-2 -1q-2 0 -2 -2v-3v-2q1 0 1 -0.5t1 -0.5h2l1 1l1 2h-3v2zM272 449h-2l-3 9l-2 -9h-2l2 13h2l4 -9l1 9h3zM275 449l2 13h9v-3h-7v-2h6v-2h-7v-4h7l-1 -2h-9zM286 449l3 13h3q1 0 1 -0.5t1 -0.5h1h1l1 -1v-2q1 -1 1 -2t-0.5 -1.5t-0.5 -1.5l-2 -2q-1 -1 -2 -1
q-1 -1 -3 -1h-4zM289 451h1q2 0 2 1h1l2 2v3v1l-1 1q-1 0 -1 0.5t-1 0.5h-1zM303 449l2 13h5l1 -1h2l1 -1v-1v-2q-1 -1 -2 -1l1 -1q1 -1 1 -2t-1 -2l-1 -1q-1 0 -1.5 -0.5t-1.5 -0.5h-6zM306 451h2q2 0 2 1h1v1v1q-1 1 -2 1h-3v-4zM307 457h2h2l1 1q0 1 -1 1h-2h-2v-2z
M321 449h-2l1 5l-4 8h3l2 -4v-2l1 1l1 2l2 3h3l-6 -8zM396 448h-2l-1 9l-4 -9h-3v13h2v-9l5 9h2l1 -9l4 9h2zM412 448h-2l-1 9l-4 -9h-3v13h2v-9l5 9h2l1 -9l4 9h2zM428 448h-2l-1 9l-4 -9h-3v13h2v-9l5 9h2l1 -9l4 9h2zM432 451h2v-3h-3zM445 453l2 -1q0 -1 -2 -3
q-1 0 -1.5 -0.5t-1.5 -0.5q-2 0 -4 2q-1 0 -1 3t1 4q0 1 2 3q1 0 1.5 0.5t1.5 0.5t1 -0.5t1 -0.5h1q2 -2 2 -3h-3v1q-1 0 -1 0.5t-1 0.5q-1 -1 -2 -1q-1 -1 -1 -2q-1 -1 -1 -3q0 -1 0.5 -1t0.5 -1q1 -1 2 -1q1 1 2 1q0 1 1 2zM457 454h-5l-1 -6h-3l3 13h2l-1 -5h5l1 5h2
l-2 -13h-3zM463 448h-3l3 13h5q1 0 1.5 -0.5t1.5 -0.5l1 -1v-2q0 -2 -1 -2q0 -1 -2 -1v-2q2 -2 2 -4h-2l-2 4q0 1 -1 1h-1h-1zM464 455h2h2l1 1l1 1q0 1 -1 1q0 1 -1 1h-3zM473 448l2 13h3l-3 -13h-2zM478 452h2v-1q1 0 1 -0.5t1 -0.5q2 0 2 1q1 0 1 1l-1 1l-1 1q-2 0 -2 1
q-1 0 -1 1l-1 1q0 1 0.5 1.5t0.5 1.5q1 0 1.5 0.5t1.5 0.5q2 0 2.5 -0.5t1.5 -0.5q1 -1 1 -3h-2l-1 1q0 1 -2 1q-1 0 -1 -1v-1q0 -1 2 -1l2 -2q1 0 1 -2t-1 -3q-1 0 -1.5 -0.5t-2.5 -0.5q-1 0 -2 1l-2 1v2zM495 448h-3l-2 13h2l2 -10l5 10h2zM500 448l2 13h3l-3 -13h-2z
M505 448l2 13h3l-2 -11h6l-1 -2h-8zM515 448l2 13h9v-2h-6l-1 -3h6v-2h-6l-1 -4h7l-1 -2h-9zM527 451h2v-3h-3zM540 453l2 -1q0 -1 -2 -3q-1 0 -1.5 -0.5t-1.5 -0.5q-2 0 -4 2q-1 0 -1 3t1 4q0 1 2 3q1 0 1.5 0.5t1.5 0.5t1 -0.5t1 -0.5h1q2 -2 2 -3h-3v1q-1 0 -1 0.5
t-1 0.5t-1 -0.5t-1 -0.5q-1 -1 -1 -2q-1 -1 -1 -3q0 -1 1 -2t2 -1l1 1zM544 453v2q1 1 1 1.5t1 1.5q0 2 2 2q1 1 3 1q1 0 3 -2t2 -3q0 -2 -0.5 -2.5t-0.5 -1.5l-3 -3q-1 0 -1.5 -0.5t-1.5 -0.5q-2 0 -3 1l-2 2v2zM546 453q0 -1 0.5 -1t0.5 -1q1 0 1 -0.5t1 -0.5t1 0.5t1 0.5
l2 2v3q0 1 -1 2t-2 1q-2 0 -2 -2q-2 -2 -2 -4zM563 448h-2l-1 11l-1 -11h-3l3 13h3l1 -9l4 9h3l-2 -13h-2l2 10z" />
    <glyph glyph-name="one" unicode="1" 
d="M379 368l-33 -58.5l-34 -61.5q-51 21 -82 66q-16 22 -26.5 50t-10.5 63q0 36 10.5 64t25.5 50q31 43 83 66v-127h67v211q-61 -3 -104 -25t-75 -54q-30 -30 -52 -77q-10 -23 -16.5 -49t-6.5 -57q0 -48 13 -83.5t32 -64.5q39 -58 103 -91q11 -5 22.5 -9.5t24.5 -7.5
q25 -7 56 -9h2h1v5v199zM396 486l33 58l34 62q51 -23 82 -67q16 -22 26.5 -49.5t10.5 -63.5q0 -35 -10.5 -63.5t-25.5 -49.5q-31 -44 -83 -67v128h-67v-211q61 3 104 25t75 54q33 33 52 77q10 22 16.5 48.5t6.5 56.5q0 48 -12.5 84t-32.5 65t-45.5 51.5t-57.5 38.5
q-20 10 -47 18q-13 3 -27 5.5t-29 2.5q1 0 -0.5 0.5t-2.5 0.5v-5v-199zM391 73q-72 0 -136 26.5t-115 77.5t-77.5 115t-26.5 136t26.5 136t77.5 114q51 51 115 77.5t136 26.5q71 0 135 -26.5t115 -77.5q51 -50 77.5 -114t26.5 -136t-26.5 -136t-77.5 -115t-115 -77.5
t-135 -26.5zM391 748q-66 0 -124.5 -25t-102 -68.5t-69 -102t-25.5 -124.5t25.5 -124.5t69 -102t102 -69t124.5 -25.5t124 25.5t101.5 69t69 102t25.5 124.5t-25.5 124.5t-69 102t-101.5 68.5t-124 25zM235 410l10 -2q-3 -8 -9 -12q-8 -4 -13 -4q-7 0 -14 5q-5 7 -5 15
q0 7 4 15q3 7 9 10q5 4 12 4q5 0 13 -4q5 -5 5 -11l-9 -1l-3 6q-2 1 -6 1q-5 0 -7 -2q-5 -3 -6 -8q-2 -6 -2 -10q0 -6 3 -9q1 -3 6 -3q4 0 7 3q3 2 5 7zM281 414h-18l-5 -21h-10l10 47h10l-4 -18h18l4 18h10l-10 -47h-10zM306 393h-10l10 47h21q6 0 8 -1q4 -2 5 -4
q2 -4 2 -7q0 -7 -4 -10q-2 -3 -11 -5l4 -4q2 -3 3.5 -7l3.5 -9h-10q-1 2 -2 5t-3 7q-2 2 -2.5 4t-2.5 3h-4h-4zM311 420h5h11q1 1 2 1.5t2 1.5q1 2 1 5t-2 3q-1 1 -6 1h-10zM343 393l10 47h9l-10 -47h-9zM363 408l9 1q0 -4 2 -6q1 -3 7 -3q5 0 7 2q2 1 2 4t-1 4q-1 0 -7 3
l-8 4q-3 1 -4 4q-1 2 -1 6q0 6 4 10t12 4q9 0 13 -4q5 -5 5 -10l-9 -1q0 3 -3 5q-1 2 -6 2q-4 0 -5 -1q-2 -1 -2 -4q0 -2 1 -3t3 -1.5t4 -2.5q5 -2 7 -3l4 -2q3 -5 3 -9q0 -5 -5 -10t-14 -5q-4 0 -10 2q-5 3 -6 6q-2 2 -2 8zM447 393h-10l-9 47h10l6 -36l19 36h10zM467 393
l10 47h9l-10 -47h-9zM486 393l10 47h9l-8 -39h24l-2 -8h-33zM526 393l9 47h35l-1 -8h-26l-2 -10h24l-1 -8h-24l-3 -13h27l-2 -8h-36zM210 449l2 13h4l1 -1h2h1q0 -1 1 -1v-2v-2v-3l-2 -2l-2 -1q-1 -1 -3 -1h-4zM213 451h1q2 0 2 1h1q1 1 1 2q1 1 1 3q0 1 -1 1q0 1 -1 1
q0 1 -1 1h-2zM222 449l3 13h9l-1 -3h-6l-1 -2h6v-2h-6l-1 -4h7l-1 -2h-9zM234 453h2v-1q1 -1 2 -1q2 0 2 1q1 0 1 1l-1 1l-1 1q-2 0 -2 1q-1 0 -1 1l-1 1q0 1 0.5 1.5t0.5 1.5q1 0 1.5 0.5t1.5 0.5q2 0 2.5 -0.5t1.5 -0.5q1 -1 1 -3h-2l-1 1q0 1 -2 1q-1 0 -1 -1v-1
q0 -1 2 -1l2 -2q1 0 1 -2t-1 -3q-1 0 -1.5 -0.5t-2.5 -0.5q-1 0 -2 1l-2 1v2zM245 449l2 13h3l-3 -13h-2zM256 456h5l-1 -5q0 -1 -2 -1q-1 -1 -3 -1q-1 0 -1.5 0.5t-1.5 0.5q-2 2 -2 4q0 3 1 4q0 1 2 3q1 0 1.5 0.5t2.5 0.5q1 0 1.5 -0.5t1.5 -0.5q2 -2 2 -3h-2l-1 1
q-1 1 -2 1l-2 -1q-2 0 -2 -2v-3v-2q1 0 1 -0.5t1 -0.5h2l1 1l1 2h-3v2zM272 449h-2l-3 9l-2 -9h-2l2 13h2l4 -9l1 9h3zM275 449l2 13h9v-3h-7v-2h6v-2h-7v-4h7l-1 -2h-9zM286 449l3 13h3q1 0 1 -0.5t1 -0.5h1h1l1 -1v-2q1 -1 1 -2t-0.5 -1.5t-0.5 -1.5l-2 -2q-1 -1 -2 -1
q-1 -1 -3 -1h-4zM289 451h1q2 0 2 1h1l2 2v3v1l-1 1q-1 0 -1 0.5t-1 0.5h-1zM303 449l2 13h5l1 -1h2l1 -1v-1v-2q-1 -1 -2 -1l1 -1q1 -1 1 -2t-1 -2l-1 -1q-1 0 -1.5 -0.5t-1.5 -0.5h-6zM306 451h2q2 0 2 1h1v1v1q-1 1 -2 1h-3v-4zM307 457h2h2l1 1q0 1 -1 1h-2h-2v-2z
M321 449h-2l1 5l-4 8h3l2 -4v-2l1 1l1 2l2 3h3l-6 -8zM396 448h-2l-1 9l-4 -9h-3v13h2v-9l5 9h2l1 -9l4 9h2zM412 448h-2l-1 9l-4 -9h-3v13h2v-9l5 9h2l1 -9l4 9h2zM428 448h-2l-1 9l-4 -9h-3v13h2v-9l5 9h2l1 -9l4 9h2zM432 451h2v-3h-3zM445 453l2 -1q0 -1 -2 -3
q-1 0 -1.5 -0.5t-1.5 -0.5q-2 0 -4 2q-1 0 -1 3t1 4q0 1 2 3q1 0 1.5 0.5t1.5 0.5t1 -0.5t1 -0.5h1q2 -2 2 -3h-3v1q-1 0 -1 0.5t-1 0.5q-1 -1 -2 -1q-1 -1 -1 -2q-1 -1 -1 -3q0 -1 0.5 -1t0.5 -1q1 -1 2 -1q1 1 2 1q0 1 1 2zM457 454h-5l-1 -6h-3l3 13h2l-1 -5h5l1 5h2
l-2 -13h-3zM463 448h-3l3 13h5q1 0 1.5 -0.5t1.5 -0.5l1 -1v-2q0 -2 -1 -2q0 -1 -2 -1v-2q2 -2 2 -4h-2l-2 4q0 1 -1 1h-1h-1zM464 455h2h2l1 1l1 1q0 1 -1 1q0 1 -1 1h-3zM473 448l2 13h3l-3 -13h-2zM478 452h2v-1q1 0 1 -0.5t1 -0.5q2 0 2 1q1 0 1 1l-1 1l-1 1q-2 0 -2 1
q-1 0 -1 1l-1 1q0 1 0.5 1.5t0.5 1.5q1 0 1.5 0.5t1.5 0.5q2 0 2.5 -0.5t1.5 -0.5q1 -1 1 -3h-2l-1 1q0 1 -2 1q-1 0 -1 -1v-1q0 -1 2 -1l2 -2q1 0 1 -2t-1 -3q-1 0 -1.5 -0.5t-2.5 -0.5q-1 0 -2 1l-2 1v2zM495 448h-3l-2 13h2l2 -10l5 10h2zM500 448l2 13h3l-3 -13h-2z
M505 448l2 13h3l-2 -11h6l-1 -2h-8zM515 448l2 13h9v-2h-6l-1 -3h6v-2h-6l-1 -4h7l-1 -2h-9zM527 451h2v-3h-3zM540 453l2 -1q0 -1 -2 -3q-1 0 -1.5 -0.5t-1.5 -0.5q-2 0 -4 2q-1 0 -1 3t1 4q0 1 2 3q1 0 1.5 0.5t1.5 0.5t1 -0.5t1 -0.5h1q2 -2 2 -3h-3v1q-1 0 -1 0.5
t-1 0.5t-1 -0.5t-1 -0.5q-1 -1 -1 -2q-1 -1 -1 -3q0 -1 1 -2t2 -1l1 1zM544 453v2q1 1 1 1.5t1 1.5q0 2 2 2q1 1 3 1q1 0 3 -2t2 -3q0 -2 -0.5 -2.5t-0.5 -1.5l-3 -3q-1 0 -1.5 -0.5t-1.5 -0.5q-2 0 -3 1l-2 2v2zM546 453q0 -1 0.5 -1t0.5 -1q1 0 1 -0.5t1 -0.5t1 0.5t1 0.5
l2 2v3q0 1 -1 2t-2 1q-2 0 -2 -2q-2 -2 -2 -4zM563 448h-2l-1 11l-1 -11h-3l3 13h3l1 -9l4 9h3l-2 -13h-2l2 10z" />
    <glyph glyph-name="two" unicode="2" 
d="M379 368l-33 -58.5l-34 -61.5q-51 21 -82 66q-16 22 -26.5 50t-10.5 63q0 36 10.5 64t25.5 50q31 43 83 66v-127h67v211q-61 -3 -104 -25t-75 -54q-30 -30 -52 -77q-10 -23 -16.5 -49t-6.5 -57q0 -48 13 -83.5t32 -64.5q39 -58 103 -91q11 -5 22.5 -9.5t24.5 -7.5
q25 -7 56 -9h2h1v5v199zM396 486l33 58l34 62q51 -23 82 -67q16 -22 26.5 -49.5t10.5 -63.5q0 -35 -10.5 -63.5t-25.5 -49.5q-31 -44 -83 -67v128h-67v-211q61 3 104 25t75 54q33 33 52 77q10 22 16.5 48.5t6.5 56.5q0 48 -12.5 84t-32.5 65t-45.5 51.5t-57.5 38.5
q-20 10 -47 18q-13 3 -27 5.5t-29 2.5q1 0 -0.5 0.5t-2.5 0.5v-5v-199zM391 73q-72 0 -136 26.5t-115 77.5t-77.5 115t-26.5 136t26.5 136t77.5 114q51 51 115 77.5t136 26.5q71 0 135 -26.5t115 -77.5q51 -50 77.5 -114t26.5 -136t-26.5 -136t-77.5 -115t-115 -77.5
t-135 -26.5zM391 748q-66 0 -124.5 -25t-102 -68.5t-69 -102t-25.5 -124.5t25.5 -124.5t69 -102t102 -69t124.5 -25.5t124 25.5t101.5 69t69 102t25.5 124.5t-25.5 124.5t-69 102t-101.5 68.5t-124 25zM235 410l10 -2q-3 -8 -9 -12q-8 -4 -13 -4q-7 0 -14 5q-5 7 -5 15
q0 7 4 15q3 7 9 10q5 4 12 4q5 0 13 -4q5 -5 5 -11l-9 -1l-3 6q-2 1 -6 1q-5 0 -7 -2q-5 -3 -6 -8q-2 -6 -2 -10q0 -6 3 -9q1 -3 6 -3q4 0 7 3q3 2 5 7zM281 414h-18l-5 -21h-10l10 47h10l-4 -18h18l4 18h10l-10 -47h-10zM306 393h-10l10 47h21q6 0 8 -1q4 -2 5 -4
q2 -4 2 -7q0 -7 -4 -10q-2 -3 -11 -5l4 -4q2 -3 3.5 -7l3.5 -9h-10q-1 2 -2 5t-3 7q-2 2 -2.5 4t-2.5 3h-4h-4zM311 420h5h11q1 1 2 1.5t2 1.5q1 2 1 5t-2 3q-1 1 -6 1h-10zM343 393l10 47h9l-10 -47h-9zM363 408l9 1q0 -4 2 -6q1 -3 7 -3q5 0 7 2q2 1 2 4t-1 4q-1 0 -7 3
l-8 4q-3 1 -4 4q-1 2 -1 6q0 6 4 10t12 4q9 0 13 -4q5 -5 5 -10l-9 -1q0 3 -3 5q-1 2 -6 2q-4 0 -5 -1q-2 -1 -2 -4q0 -2 1 -3t3 -1.5t4 -2.5q5 -2 7 -3l4 -2q3 -5 3 -9q0 -5 -5 -10t-14 -5q-4 0 -10 2q-5 3 -6 6q-2 2 -2 8zM447 393h-10l-9 47h10l6 -36l19 36h10zM467 393
l10 47h9l-10 -47h-9zM486 393l10 47h9l-8 -39h24l-2 -8h-33zM526 393l9 47h35l-1 -8h-26l-2 -10h24l-1 -8h-24l-3 -13h27l-2 -8h-36zM210 449l2 13h4l1 -1h2h1q0 -1 1 -1v-2v-2v-3l-2 -2l-2 -1q-1 -1 -3 -1h-4zM213 451h1q2 0 2 1h1q1 1 1 2q1 1 1 3q0 1 -1 1q0 1 -1 1
q0 1 -1 1h-2zM222 449l3 13h9l-1 -3h-6l-1 -2h6v-2h-6l-1 -4h7l-1 -2h-9zM234 453h2v-1q1 -1 2 -1q2 0 2 1q1 0 1 1l-1 1l-1 1q-2 0 -2 1q-1 0 -1 1l-1 1q0 1 0.5 1.5t0.5 1.5q1 0 1.5 0.5t1.5 0.5q2 0 2.5 -0.5t1.5 -0.5q1 -1 1 -3h-2l-1 1q0 1 -2 1q-1 0 -1 -1v-1
q0 -1 2 -1l2 -2q1 0 1 -2t-1 -3q-1 0 -1.5 -0.5t-2.5 -0.5q-1 0 -2 1l-2 1v2zM245 449l2 13h3l-3 -13h-2zM256 456h5l-1 -5q0 -1 -2 -1q-1 -1 -3 -1q-1 0 -1.5 0.5t-1.5 0.5q-2 2 -2 4q0 3 1 4q0 1 2 3q1 0 1.5 0.5t2.5 0.5q1 0 1.5 -0.5t1.5 -0.5q2 -2 2 -3h-2l-1 1
q-1 1 -2 1l-2 -1q-2 0 -2 -2v-3v-2q1 0 1 -0.5t1 -0.5h2l1 1l1 2h-3v2zM272 449h-2l-3 9l-2 -9h-2l2 13h2l4 -9l1 9h3zM275 449l2 13h9v-3h-7v-2h6v-2h-7v-4h7l-1 -2h-9zM286 449l3 13h3q1 0 1 -0.5t1 -0.5h1h1l1 -1v-2q1 -1 1 -2t-0.5 -1.5t-0.5 -1.5l-2 -2q-1 -1 -2 -1
q-1 -1 -3 -1h-4zM289 451h1q2 0 2 1h1l2 2v3v1l-1 1q-1 0 -1 0.5t-1 0.5h-1zM303 449l2 13h5l1 -1h2l1 -1v-1v-2q-1 -1 -2 -1l1 -1q1 -1 1 -2t-1 -2l-1 -1q-1 0 -1.5 -0.5t-1.5 -0.5h-6zM306 451h2q2 0 2 1h1v1v1q-1 1 -2 1h-3v-4zM307 457h2h2l1 1q0 1 -1 1h-2h-2v-2z
M321 449h-2l1 5l-4 8h3l2 -4v-2l1 1l1 2l2 3h3l-6 -8zM396 448h-2l-1 9l-4 -9h-3v13h2v-9l5 9h2l1 -9l4 9h2zM412 448h-2l-1 9l-4 -9h-3v13h2v-9l5 9h2l1 -9l4 9h2zM428 448h-2l-1 9l-4 -9h-3v13h2v-9l5 9h2l1 -9l4 9h2zM432 451h2v-3h-3zM445 453l2 -1q0 -1 -2 -3
q-1 0 -1.5 -0.5t-1.5 -0.5q-2 0 -4 2q-1 0 -1 3t1 4q0 1 2 3q1 0 1.5 0.5t1.5 0.5t1 -0.5t1 -0.5h1q2 -2 2 -3h-3v1q-1 0 -1 0.5t-1 0.5q-1 -1 -2 -1q-1 -1 -1 -2q-1 -1 -1 -3q0 -1 0.5 -1t0.5 -1q1 -1 2 -1q1 1 2 1q0 1 1 2zM457 454h-5l-1 -6h-3l3 13h2l-1 -5h5l1 5h2
l-2 -13h-3zM463 448h-3l3 13h5q1 0 1.5 -0.5t1.5 -0.5l1 -1v-2q0 -2 -1 -2q0 -1 -2 -1v-2q2 -2 2 -4h-2l-2 4q0 1 -1 1h-1h-1zM464 455h2h2l1 1l1 1q0 1 -1 1q0 1 -1 1h-3zM473 448l2 13h3l-3 -13h-2zM478 452h2v-1q1 0 1 -0.5t1 -0.5q2 0 2 1q1 0 1 1l-1 1l-1 1q-2 0 -2 1
q-1 0 -1 1l-1 1q0 1 0.5 1.5t0.5 1.5q1 0 1.5 0.5t1.5 0.5q2 0 2.5 -0.5t1.5 -0.5q1 -1 1 -3h-2l-1 1q0 1 -2 1q-1 0 -1 -1v-1q0 -1 2 -1l2 -2q1 0 1 -2t-1 -3q-1 0 -1.5 -0.5t-2.5 -0.5q-1 0 -2 1l-2 1v2zM495 448h-3l-2 13h2l2 -10l5 10h2zM500 448l2 13h3l-3 -13h-2z
M505 448l2 13h3l-2 -11h6l-1 -2h-8zM515 448l2 13h9v-2h-6l-1 -3h6v-2h-6l-1 -4h7l-1 -2h-9zM527 451h2v-3h-3zM540 453l2 -1q0 -1 -2 -3q-1 0 -1.5 -0.5t-1.5 -0.5q-2 0 -4 2q-1 0 -1 3t1 4q0 1 2 3q1 0 1.5 0.5t1.5 0.5t1 -0.5t1 -0.5h1q2 -2 2 -3h-3v1q-1 0 -1 0.5
t-1 0.5t-1 -0.5t-1 -0.5q-1 -1 -1 -2q-1 -1 -1 -3q0 -1 1 -2t2 -1l1 1zM544 453v2q1 1 1 1.5t1 1.5q0 2 2 2q1 1 3 1q1 0 3 -2t2 -3q0 -2 -0.5 -2.5t-0.5 -1.5l-3 -3q-1 0 -1.5 -0.5t-1.5 -0.5q-2 0 -3 1l-2 2v2zM546 453q0 -1 0.5 -1t0.5 -1q1 0 1 -0.5t1 -0.5t1 0.5t1 0.5
l2 2v3q0 1 -1 2t-2 1q-2 0 -2 -2q-2 -2 -2 -4zM563 448h-2l-1 11l-1 -11h-3l3 13h3l1 -9l4 9h3l-2 -13h-2l2 10z" />
    <glyph glyph-name="three" unicode="3" 
d="M379 368l-33 -58.5l-34 -61.5q-51 21 -82 66q-16 22 -26.5 50t-10.5 63q0 36 10.5 64t25.5 50q31 43 83 66v-127h67v211q-61 -3 -104 -25t-75 -54q-30 -30 -52 -77q-10 -23 -16.5 -49t-6.5 -57q0 -48 13 -83.5t32 -64.5q39 -58 103 -91q11 -5 22.5 -9.5t24.5 -7.5
q25 -7 56 -9h2h1v5v199zM396 486l33 58l34 62q51 -23 82 -67q16 -22 26.5 -49.5t10.5 -63.5q0 -35 -10.5 -63.5t-25.5 -49.5q-31 -44 -83 -67v128h-67v-211q61 3 104 25t75 54q33 33 52 77q10 22 16.5 48.5t6.5 56.5q0 48 -12.5 84t-32.5 65t-45.5 51.5t-57.5 38.5
q-20 10 -47 18q-13 3 -27 5.5t-29 2.5q1 0 -0.5 0.5t-2.5 0.5v-5v-199zM391 73q-72 0 -136 26.5t-115 77.5t-77.5 115t-26.5 136t26.5 136t77.5 114q51 51 115 77.5t136 26.5q71 0 135 -26.5t115 -77.5q51 -50 77.5 -114t26.5 -136t-26.5 -136t-77.5 -115t-115 -77.5
t-135 -26.5zM391 748q-66 0 -124.5 -25t-102 -68.5t-69 -102t-25.5 -124.5t25.5 -124.5t69 -102t102 -69t124.5 -25.5t124 25.5t101.5 69t69 102t25.5 124.5t-25.5 124.5t-69 102t-101.5 68.5t-124 25zM235 410l10 -2q-3 -8 -9 -12q-8 -4 -13 -4q-7 0 -14 5q-5 7 -5 15
q0 7 4 15q3 7 9 10q5 4 12 4q5 0 13 -4q5 -5 5 -11l-9 -1l-3 6q-2 1 -6 1q-5 0 -7 -2q-5 -3 -6 -8q-2 -6 -2 -10q0 -6 3 -9q1 -3 6 -3q4 0 7 3q3 2 5 7zM281 414h-18l-5 -21h-10l10 47h10l-4 -18h18l4 18h10l-10 -47h-10zM306 393h-10l10 47h21q6 0 8 -1q4 -2 5 -4
q2 -4 2 -7q0 -7 -4 -10q-2 -3 -11 -5l4 -4q2 -3 3.5 -7l3.5 -9h-10q-1 2 -2 5t-3 7q-2 2 -2.5 4t-2.5 3h-4h-4zM311 420h5h11q1 1 2 1.5t2 1.5q1 2 1 5t-2 3q-1 1 -6 1h-10zM343 393l10 47h9l-10 -47h-9zM363 408l9 1q0 -4 2 -6q1 -3 7 -3q5 0 7 2q2 1 2 4t-1 4q-1 0 -7 3
l-8 4q-3 1 -4 4q-1 2 -1 6q0 6 4 10t12 4q9 0 13 -4q5 -5 5 -10l-9 -1q0 3 -3 5q-1 2 -6 2q-4 0 -5 -1q-2 -1 -2 -4q0 -2 1 -3t3 -1.5t4 -2.5q5 -2 7 -3l4 -2q3 -5 3 -9q0 -5 -5 -10t-14 -5q-4 0 -10 2q-5 3 -6 6q-2 2 -2 8zM447 393h-10l-9 47h10l6 -36l19 36h10zM467 393
l10 47h9l-10 -47h-9zM486 393l10 47h9l-8 -39h24l-2 -8h-33zM526 393l9 47h35l-1 -8h-26l-2 -10h24l-1 -8h-24l-3 -13h27l-2 -8h-36zM210 449l2 13h4l1 -1h2h1q0 -1 1 -1v-2v-2v-3l-2 -2l-2 -1q-1 -1 -3 -1h-4zM213 451h1q2 0 2 1h1q1 1 1 2q1 1 1 3q0 1 -1 1q0 1 -1 1
q0 1 -1 1h-2zM222 449l3 13h9l-1 -3h-6l-1 -2h6v-2h-6l-1 -4h7l-1 -2h-9zM234 453h2v-1q1 -1 2 -1q2 0 2 1q1 0 1 1l-1 1l-1 1q-2 0 -2 1q-1 0 -1 1l-1 1q0 1 0.5 1.5t0.5 1.5q1 0 1.5 0.5t1.5 0.5q2 0 2.5 -0.5t1.5 -0.5q1 -1 1 -3h-2l-1 1q0 1 -2 1q-1 0 -1 -1v-1
q0 -1 2 -1l2 -2q1 0 1 -2t-1 -3q-1 0 -1.5 -0.5t-2.5 -0.5q-1 0 -2 1l-2 1v2zM245 449l2 13h3l-3 -13h-2zM256 456h5l-1 -5q0 -1 -2 -1q-1 -1 -3 -1q-1 0 -1.5 0.5t-1.5 0.5q-2 2 -2 4q0 3 1 4q0 1 2 3q1 0 1.5 0.5t2.5 0.5q1 0 1.5 -0.5t1.5 -0.5q2 -2 2 -3h-2l-1 1
q-1 1 -2 1l-2 -1q-2 0 -2 -2v-3v-2q1 0 1 -0.5t1 -0.5h2l1 1l1 2h-3v2zM272 449h-2l-3 9l-2 -9h-2l2 13h2l4 -9l1 9h3zM275 449l2 13h9v-3h-7v-2h6v-2h-7v-4h7l-1 -2h-9zM286 449l3 13h3q1 0 1 -0.5t1 -0.5h1h1l1 -1v-2q1 -1 1 -2t-0.5 -1.5t-0.5 -1.5l-2 -2q-1 -1 -2 -1
q-1 -1 -3 -1h-4zM289 451h1q2 0 2 1h1l2 2v3v1l-1 1q-1 0 -1 0.5t-1 0.5h-1zM303 449l2 13h5l1 -1h2l1 -1v-1v-2q-1 -1 -2 -1l1 -1q1 -1 1 -2t-1 -2l-1 -1q-1 0 -1.5 -0.5t-1.5 -0.5h-6zM306 451h2q2 0 2 1h1v1v1q-1 1 -2 1h-3v-4zM307 457h2h2l1 1q0 1 -1 1h-2h-2v-2z
M321 449h-2l1 5l-4 8h3l2 -4v-2l1 1l1 2l2 3h3l-6 -8zM396 448h-2l-1 9l-4 -9h-3v13h2v-9l5 9h2l1 -9l4 9h2zM412 448h-2l-1 9l-4 -9h-3v13h2v-9l5 9h2l1 -9l4 9h2zM428 448h-2l-1 9l-4 -9h-3v13h2v-9l5 9h2l1 -9l4 9h2zM432 451h2v-3h-3zM445 453l2 -1q0 -1 -2 -3
q-1 0 -1.5 -0.5t-1.5 -0.5q-2 0 -4 2q-1 0 -1 3t1 4q0 1 2 3q1 0 1.5 0.5t1.5 0.5t1 -0.5t1 -0.5h1q2 -2 2 -3h-3v1q-1 0 -1 0.5t-1 0.5q-1 -1 -2 -1q-1 -1 -1 -2q-1 -1 -1 -3q0 -1 0.5 -1t0.5 -1q1 -1 2 -1q1 1 2 1q0 1 1 2zM457 454h-5l-1 -6h-3l3 13h2l-1 -5h5l1 5h2
l-2 -13h-3zM463 448h-3l3 13h5q1 0 1.5 -0.5t1.5 -0.5l1 -1v-2q0 -2 -1 -2q0 -1 -2 -1v-2q2 -2 2 -4h-2l-2 4q0 1 -1 1h-1h-1zM464 455h2h2l1 1l1 1q0 1 -1 1q0 1 -1 1h-3zM473 448l2 13h3l-3 -13h-2zM478 452h2v-1q1 0 1 -0.5t1 -0.5q2 0 2 1q1 0 1 1l-1 1l-1 1q-2 0 -2 1
q-1 0 -1 1l-1 1q0 1 0.5 1.5t0.5 1.5q1 0 1.5 0.5t1.5 0.5q2 0 2.5 -0.5t1.5 -0.5q1 -1 1 -3h-2l-1 1q0 1 -2 1q-1 0 -1 -1v-1q0 -1 2 -1l2 -2q1 0 1 -2t-1 -3q-1 0 -1.5 -0.5t-2.5 -0.5q-1 0 -2 1l-2 1v2zM495 448h-3l-2 13h2l2 -10l5 10h2zM500 448l2 13h3l-3 -13h-2z
M505 448l2 13h3l-2 -11h6l-1 -2h-8zM515 448l2 13h9v-2h-6l-1 -3h6v-2h-6l-1 -4h7l-1 -2h-9zM527 451h2v-3h-3zM540 453l2 -1q0 -1 -2 -3q-1 0 -1.5 -0.5t-1.5 -0.5q-2 0 -4 2q-1 0 -1 3t1 4q0 1 2 3q1 0 1.5 0.5t1.5 0.5t1 -0.5t1 -0.5h1q2 -2 2 -3h-3v1q-1 0 -1 0.5
t-1 0.5t-1 -0.5t-1 -0.5q-1 -1 -1 -2q-1 -1 -1 -3q0 -1 1 -2t2 -1l1 1zM544 453v2q1 1 1 1.5t1 1.5q0 2 2 2q1 1 3 1q1 0 3 -2t2 -3q0 -2 -0.5 -2.5t-0.5 -1.5l-3 -3q-1 0 -1.5 -0.5t-1.5 -0.5q-2 0 -3 1l-2 2v2zM546 453q0 -1 0.5 -1t0.5 -1q1 0 1 -0.5t1 -0.5t1 0.5t1 0.5
l2 2v3q0 1 -1 2t-2 1q-2 0 -2 -2q-2 -2 -2 -4zM563 448h-2l-1 11l-1 -11h-3l3 13h3l1 -9l4 9h3l-2 -13h-2l2 10z" />
    <glyph glyph-name="four" unicode="4" 
d="M379 368l-33 -58.5l-34 -61.5q-51 21 -82 66q-16 22 -26.5 50t-10.5 63q0 36 10.5 64t25.5 50q31 43 83 66v-127h67v211q-61 -3 -104 -25t-75 -54q-30 -30 -52 -77q-10 -23 -16.5 -49t-6.5 -57q0 -48 13 -83.5t32 -64.5q39 -58 103 -91q11 -5 22.5 -9.5t24.5 -7.5
q25 -7 56 -9h2h1v5v199zM396 486l33 58l34 62q51 -23 82 -67q16 -22 26.5 -49.5t10.5 -63.5q0 -35 -10.5 -63.5t-25.5 -49.5q-31 -44 -83 -67v128h-67v-211q61 3 104 25t75 54q33 33 52 77q10 22 16.5 48.5t6.5 56.5q0 48 -12.5 84t-32.5 65t-45.5 51.5t-57.5 38.5
q-20 10 -47 18q-13 3 -27 5.5t-29 2.5q1 0 -0.5 0.5t-2.5 0.5v-5v-199zM391 73q-72 0 -136 26.5t-115 77.5t-77.5 115t-26.5 136t26.5 136t77.5 114q51 51 115 77.5t136 26.5q71 0 135 -26.5t115 -77.5q51 -50 77.5 -114t26.5 -136t-26.5 -136t-77.5 -115t-115 -77.5
t-135 -26.5zM391 748q-66 0 -124.5 -25t-102 -68.5t-69 -102t-25.5 -124.5t25.5 -124.5t69 -102t102 -69t124.5 -25.5t124 25.5t101.5 69t69 102t25.5 124.5t-25.5 124.5t-69 102t-101.5 68.5t-124 25zM235 410l10 -2q-3 -8 -9 -12q-8 -4 -13 -4q-7 0 -14 5q-5 7 -5 15
q0 7 4 15q3 7 9 10q5 4 12 4q5 0 13 -4q5 -5 5 -11l-9 -1l-3 6q-2 1 -6 1q-5 0 -7 -2q-5 -3 -6 -8q-2 -6 -2 -10q0 -6 3 -9q1 -3 6 -3q4 0 7 3q3 2 5 7zM281 414h-18l-5 -21h-10l10 47h10l-4 -18h18l4 18h10l-10 -47h-10zM306 393h-10l10 47h21q6 0 8 -1q4 -2 5 -4
q2 -4 2 -7q0 -7 -4 -10q-2 -3 -11 -5l4 -4q2 -3 3.5 -7l3.5 -9h-10q-1 2 -2 5t-3 7q-2 2 -2.5 4t-2.5 3h-4h-4zM311 420h5h11q1 1 2 1.5t2 1.5q1 2 1 5t-2 3q-1 1 -6 1h-10zM343 393l10 47h9l-10 -47h-9zM363 408l9 1q0 -4 2 -6q1 -3 7 -3q5 0 7 2q2 1 2 4t-1 4q-1 0 -7 3
l-8 4q-3 1 -4 4q-1 2 -1 6q0 6 4 10t12 4q9 0 13 -4q5 -5 5 -10l-9 -1q0 3 -3 5q-1 2 -6 2q-4 0 -5 -1q-2 -1 -2 -4q0 -2 1 -3t3 -1.5t4 -2.5q5 -2 7 -3l4 -2q3 -5 3 -9q0 -5 -5 -10t-14 -5q-4 0 -10 2q-5 3 -6 6q-2 2 -2 8zM447 393h-10l-9 47h10l6 -36l19 36h10zM467 393
l10 47h9l-10 -47h-9zM486 393l10 47h9l-8 -39h24l-2 -8h-33zM526 393l9 47h35l-1 -8h-26l-2 -10h24l-1 -8h-24l-3 -13h27l-2 -8h-36zM210 449l2 13h4l1 -1h2h1q0 -1 1 -1v-2v-2v-3l-2 -2l-2 -1q-1 -1 -3 -1h-4zM213 451h1q2 0 2 1h1q1 1 1 2q1 1 1 3q0 1 -1 1q0 1 -1 1
q0 1 -1 1h-2zM222 449l3 13h9l-1 -3h-6l-1 -2h6v-2h-6l-1 -4h7l-1 -2h-9zM234 453h2v-1q1 -1 2 -1q2 0 2 1q1 0 1 1l-1 1l-1 1q-2 0 -2 1q-1 0 -1 1l-1 1q0 1 0.5 1.5t0.5 1.5q1 0 1.5 0.5t1.5 0.5q2 0 2.5 -0.5t1.5 -0.5q1 -1 1 -3h-2l-1 1q0 1 -2 1q-1 0 -1 -1v-1
q0 -1 2 -1l2 -2q1 0 1 -2t-1 -3q-1 0 -1.5 -0.5t-2.5 -0.5q-1 0 -2 1l-2 1v2zM245 449l2 13h3l-3 -13h-2zM256 456h5l-1 -5q0 -1 -2 -1q-1 -1 -3 -1q-1 0 -1.5 0.5t-1.5 0.5q-2 2 -2 4q0 3 1 4q0 1 2 3q1 0 1.5 0.5t2.5 0.5q1 0 1.5 -0.5t1.5 -0.5q2 -2 2 -3h-2l-1 1
q-1 1 -2 1l-2 -1q-2 0 -2 -2v-3v-2q1 0 1 -0.5t1 -0.5h2l1 1l1 2h-3v2zM272 449h-2l-3 9l-2 -9h-2l2 13h2l4 -9l1 9h3zM275 449l2 13h9v-3h-7v-2h6v-2h-7v-4h7l-1 -2h-9zM286 449l3 13h3q1 0 1 -0.5t1 -0.5h1h1l1 -1v-2q1 -1 1 -2t-0.5 -1.5t-0.5 -1.5l-2 -2q-1 -1 -2 -1
q-1 -1 -3 -1h-4zM289 451h1q2 0 2 1h1l2 2v3v1l-1 1q-1 0 -1 0.5t-1 0.5h-1zM303 449l2 13h5l1 -1h2l1 -1v-1v-2q-1 -1 -2 -1l1 -1q1 -1 1 -2t-1 -2l-1 -1q-1 0 -1.5 -0.5t-1.5 -0.5h-6zM306 451h2q2 0 2 1h1v1v1q-1 1 -2 1h-3v-4zM307 457h2h2l1 1q0 1 -1 1h-2h-2v-2z
M321 449h-2l1 5l-4 8h3l2 -4v-2l1 1l1 2l2 3h3l-6 -8zM396 448h-2l-1 9l-4 -9h-3v13h2v-9l5 9h2l1 -9l4 9h2zM412 448h-2l-1 9l-4 -9h-3v13h2v-9l5 9h2l1 -9l4 9h2zM428 448h-2l-1 9l-4 -9h-3v13h2v-9l5 9h2l1 -9l4 9h2zM432 451h2v-3h-3zM445 453l2 -1q0 -1 -2 -3
q-1 0 -1.5 -0.5t-1.5 -0.5q-2 0 -4 2q-1 0 -1 3t1 4q0 1 2 3q1 0 1.5 0.5t1.5 0.5t1 -0.5t1 -0.5h1q2 -2 2 -3h-3v1q-1 0 -1 0.5t-1 0.5q-1 -1 -2 -1q-1 -1 -1 -2q-1 -1 -1 -3q0 -1 0.5 -1t0.5 -1q1 -1 2 -1q1 1 2 1q0 1 1 2zM457 454h-5l-1 -6h-3l3 13h2l-1 -5h5l1 5h2
l-2 -13h-3zM463 448h-3l3 13h5q1 0 1.5 -0.5t1.5 -0.5l1 -1v-2q0 -2 -1 -2q0 -1 -2 -1v-2q2 -2 2 -4h-2l-2 4q0 1 -1 1h-1h-1zM464 455h2h2l1 1l1 1q0 1 -1 1q0 1 -1 1h-3zM473 448l2 13h3l-3 -13h-2zM478 452h2v-1q1 0 1 -0.5t1 -0.5q2 0 2 1q1 0 1 1l-1 1l-1 1q-2 0 -2 1
q-1 0 -1 1l-1 1q0 1 0.5 1.5t0.5 1.5q1 0 1.5 0.5t1.5 0.5q2 0 2.5 -0.5t1.5 -0.5q1 -1 1 -3h-2l-1 1q0 1 -2 1q-1 0 -1 -1v-1q0 -1 2 -1l2 -2q1 0 1 -2t-1 -3q-1 0 -1.5 -0.5t-2.5 -0.5q-1 0 -2 1l-2 1v2zM495 448h-3l-2 13h2l2 -10l5 10h2zM500 448l2 13h3l-3 -13h-2z
M505 448l2 13h3l-2 -11h6l-1 -2h-8zM515 448l2 13h9v-2h-6l-1 -3h6v-2h-6l-1 -4h7l-1 -2h-9zM527 451h2v-3h-3zM540 453l2 -1q0 -1 -2 -3q-1 0 -1.5 -0.5t-1.5 -0.5q-2 0 -4 2q-1 0 -1 3t1 4q0 1 2 3q1 0 1.5 0.5t1.5 0.5t1 -0.5t1 -0.5h1q2 -2 2 -3h-3v1q-1 0 -1 0.5
t-1 0.5t-1 -0.5t-1 -0.5q-1 -1 -1 -2q-1 -1 -1 -3q0 -1 1 -2t2 -1l1 1zM544 453v2q1 1 1 1.5t1 1.5q0 2 2 2q1 1 3 1q1 0 3 -2t2 -3q0 -2 -0.5 -2.5t-0.5 -1.5l-3 -3q-1 0 -1.5 -0.5t-1.5 -0.5q-2 0 -3 1l-2 2v2zM546 453q0 -1 0.5 -1t0.5 -1q1 0 1 -0.5t1 -0.5t1 0.5t1 0.5
l2 2v3q0 1 -1 2t-2 1q-2 0 -2 -2q-2 -2 -2 -4zM563 448h-2l-1 11l-1 -11h-3l3 13h3l1 -9l4 9h3l-2 -13h-2l2 10z" />
    <glyph glyph-name="five" unicode="5" 
d="M379 368l-33 -58.5l-34 -61.5q-51 21 -82 66q-16 22 -26.5 50t-10.5 63q0 36 10.5 64t25.5 50q31 43 83 66v-127h67v211q-61 -3 -104 -25t-75 -54q-30 -30 -52 -77q-10 -23 -16.5 -49t-6.5 -57q0 -48 13 -83.5t32 -64.5q39 -58 103 -91q11 -5 22.5 -9.5t24.5 -7.5
q25 -7 56 -9h2h1v5v199zM396 486l33 58l34 62q51 -23 82 -67q16 -22 26.5 -49.5t10.5 -63.5q0 -35 -10.5 -63.5t-25.5 -49.5q-31 -44 -83 -67v128h-67v-211q61 3 104 25t75 54q33 33 52 77q10 22 16.5 48.5t6.5 56.5q0 48 -12.5 84t-32.5 65t-45.5 51.5t-57.5 38.5
q-20 10 -47 18q-13 3 -27 5.5t-29 2.5q1 0 -0.5 0.5t-2.5 0.5v-5v-199zM391 73q-72 0 -136 26.5t-115 77.5t-77.5 115t-26.5 136t26.5 136t77.5 114q51 51 115 77.5t136 26.5q71 0 135 -26.5t115 -77.5q51 -50 77.5 -114t26.5 -136t-26.5 -136t-77.5 -115t-115 -77.5
t-135 -26.5zM391 748q-66 0 -124.5 -25t-102 -68.5t-69 -102t-25.5 -124.5t25.5 -124.5t69 -102t102 -69t124.5 -25.5t124 25.5t101.5 69t69 102t25.5 124.5t-25.5 124.5t-69 102t-101.5 68.5t-124 25zM235 410l10 -2q-3 -8 -9 -12q-8 -4 -13 -4q-7 0 -14 5q-5 7 -5 15
q0 7 4 15q3 7 9 10q5 4 12 4q5 0 13 -4q5 -5 5 -11l-9 -1l-3 6q-2 1 -6 1q-5 0 -7 -2q-5 -3 -6 -8q-2 -6 -2 -10q0 -6 3 -9q1 -3 6 -3q4 0 7 3q3 2 5 7zM281 414h-18l-5 -21h-10l10 47h10l-4 -18h18l4 18h10l-10 -47h-10zM306 393h-10l10 47h21q6 0 8 -1q4 -2 5 -4
q2 -4 2 -7q0 -7 -4 -10q-2 -3 -11 -5l4 -4q2 -3 3.5 -7l3.5 -9h-10q-1 2 -2 5t-3 7q-2 2 -2.5 4t-2.5 3h-4h-4zM311 420h5h11q1 1 2 1.5t2 1.5q1 2 1 5t-2 3q-1 1 -6 1h-10zM343 393l10 47h9l-10 -47h-9zM363 408l9 1q0 -4 2 -6q1 -3 7 -3q5 0 7 2q2 1 2 4t-1 4q-1 0 -7 3
l-8 4q-3 1 -4 4q-1 2 -1 6q0 6 4 10t12 4q9 0 13 -4q5 -5 5 -10l-9 -1q0 3 -3 5q-1 2 -6 2q-4 0 -5 -1q-2 -1 -2 -4q0 -2 1 -3t3 -1.5t4 -2.5q5 -2 7 -3l4 -2q3 -5 3 -9q0 -5 -5 -10t-14 -5q-4 0 -10 2q-5 3 -6 6q-2 2 -2 8zM447 393h-10l-9 47h10l6 -36l19 36h10zM467 393
l10 47h9l-10 -47h-9zM486 393l10 47h9l-8 -39h24l-2 -8h-33zM526 393l9 47h35l-1 -8h-26l-2 -10h24l-1 -8h-24l-3 -13h27l-2 -8h-36zM210 449l2 13h4l1 -1h2h1q0 -1 1 -1v-2v-2v-3l-2 -2l-2 -1q-1 -1 -3 -1h-4zM213 451h1q2 0 2 1h1q1 1 1 2q1 1 1 3q0 1 -1 1q0 1 -1 1
q0 1 -1 1h-2zM222 449l3 13h9l-1 -3h-6l-1 -2h6v-2h-6l-1 -4h7l-1 -2h-9zM234 453h2v-1q1 -1 2 -1q2 0 2 1q1 0 1 1l-1 1l-1 1q-2 0 -2 1q-1 0 -1 1l-1 1q0 1 0.5 1.5t0.5 1.5q1 0 1.5 0.5t1.5 0.5q2 0 2.5 -0.5t1.5 -0.5q1 -1 1 -3h-2l-1 1q0 1 -2 1q-1 0 -1 -1v-1
q0 -1 2 -1l2 -2q1 0 1 -2t-1 -3q-1 0 -1.5 -0.5t-2.5 -0.5q-1 0 -2 1l-2 1v2zM245 449l2 13h3l-3 -13h-2zM256 456h5l-1 -5q0 -1 -2 -1q-1 -1 -3 -1q-1 0 -1.5 0.5t-1.5 0.5q-2 2 -2 4q0 3 1 4q0 1 2 3q1 0 1.5 0.5t2.5 0.5q1 0 1.5 -0.5t1.5 -0.5q2 -2 2 -3h-2l-1 1
q-1 1 -2 1l-2 -1q-2 0 -2 -2v-3v-2q1 0 1 -0.5t1 -0.5h2l1 1l1 2h-3v2zM272 449h-2l-3 9l-2 -9h-2l2 13h2l4 -9l1 9h3zM275 449l2 13h9v-3h-7v-2h6v-2h-7v-4h7l-1 -2h-9zM286 449l3 13h3q1 0 1 -0.5t1 -0.5h1h1l1 -1v-2q1 -1 1 -2t-0.5 -1.5t-0.5 -1.5l-2 -2q-1 -1 -2 -1
q-1 -1 -3 -1h-4zM289 451h1q2 0 2 1h1l2 2v3v1l-1 1q-1 0 -1 0.5t-1 0.5h-1zM303 449l2 13h5l1 -1h2l1 -1v-1v-2q-1 -1 -2 -1l1 -1q1 -1 1 -2t-1 -2l-1 -1q-1 0 -1.5 -0.5t-1.5 -0.5h-6zM306 451h2q2 0 2 1h1v1v1q-1 1 -2 1h-3v-4zM307 457h2h2l1 1q0 1 -1 1h-2h-2v-2z
M321 449h-2l1 5l-4 8h3l2 -4v-2l1 1l1 2l2 3h3l-6 -8zM396 448h-2l-1 9l-4 -9h-3v13h2v-9l5 9h2l1 -9l4 9h2zM412 448h-2l-1 9l-4 -9h-3v13h2v-9l5 9h2l1 -9l4 9h2zM428 448h-2l-1 9l-4 -9h-3v13h2v-9l5 9h2l1 -9l4 9h2zM432 451h2v-3h-3zM445 453l2 -1q0 -1 -2 -3
q-1 0 -1.5 -0.5t-1.5 -0.5q-2 0 -4 2q-1 0 -1 3t1 4q0 1 2 3q1 0 1.5 0.5t1.5 0.5t1 -0.5t1 -0.5h1q2 -2 2 -3h-3v1q-1 0 -1 0.5t-1 0.5q-1 -1 -2 -1q-1 -1 -1 -2q-1 -1 -1 -3q0 -1 0.5 -1t0.5 -1q1 -1 2 -1q1 1 2 1q0 1 1 2zM457 454h-5l-1 -6h-3l3 13h2l-1 -5h5l1 5h2
l-2 -13h-3zM463 448h-3l3 13h5q1 0 1.5 -0.5t1.5 -0.5l1 -1v-2q0 -2 -1 -2q0 -1 -2 -1v-2q2 -2 2 -4h-2l-2 4q0 1 -1 1h-1h-1zM464 455h2h2l1 1l1 1q0 1 -1 1q0 1 -1 1h-3zM473 448l2 13h3l-3 -13h-2zM478 452h2v-1q1 0 1 -0.5t1 -0.5q2 0 2 1q1 0 1 1l-1 1l-1 1q-2 0 -2 1
q-1 0 -1 1l-1 1q0 1 0.5 1.5t0.5 1.5q1 0 1.5 0.5t1.5 0.5q2 0 2.5 -0.5t1.5 -0.5q1 -1 1 -3h-2l-1 1q0 1 -2 1q-1 0 -1 -1v-1q0 -1 2 -1l2 -2q1 0 1 -2t-1 -3q-1 0 -1.5 -0.5t-2.5 -0.5q-1 0 -2 1l-2 1v2zM495 448h-3l-2 13h2l2 -10l5 10h2zM500 448l2 13h3l-3 -13h-2z
M505 448l2 13h3l-2 -11h6l-1 -2h-8zM515 448l2 13h9v-2h-6l-1 -3h6v-2h-6l-1 -4h7l-1 -2h-9zM527 451h2v-3h-3zM540 453l2 -1q0 -1 -2 -3q-1 0 -1.5 -0.5t-1.5 -0.5q-2 0 -4 2q-1 0 -1 3t1 4q0 1 2 3q1 0 1.5 0.5t1.5 0.5t1 -0.5t1 -0.5h1q2 -2 2 -3h-3v1q-1 0 -1 0.5
t-1 0.5t-1 -0.5t-1 -0.5q-1 -1 -1 -2q-1 -1 -1 -3q0 -1 1 -2t2 -1l1 1zM544 453v2q1 1 1 1.5t1 1.5q0 2 2 2q1 1 3 1q1 0 3 -2t2 -3q0 -2 -0.5 -2.5t-0.5 -1.5l-3 -3q-1 0 -1.5 -0.5t-1.5 -0.5q-2 0 -3 1l-2 2v2zM546 453q0 -1 0.5 -1t0.5 -1q1 0 1 -0.5t1 -0.5t1 0.5t1 0.5
l2 2v3q0 1 -1 2t-2 1q-2 0 -2 -2q-2 -2 -2 -4zM563 448h-2l-1 11l-1 -11h-3l3 13h3l1 -9l4 9h3l-2 -13h-2l2 10z" />
    <glyph glyph-name="six" unicode="6" 
d="M379 368l-33 -58.5l-34 -61.5q-51 21 -82 66q-16 22 -26.5 50t-10.5 63q0 36 10.5 64t25.5 50q31 43 83 66v-127h67v211q-61 -3 -104 -25t-75 -54q-30 -30 -52 -77q-10 -23 -16.5 -49t-6.5 -57q0 -48 13 -83.5t32 -64.5q39 -58 103 -91q11 -5 22.5 -9.5t24.5 -7.5
q25 -7 56 -9h2h1v5v199zM396 486l33 58l34 62q51 -23 82 -67q16 -22 26.5 -49.5t10.5 -63.5q0 -35 -10.5 -63.5t-25.5 -49.5q-31 -44 -83 -67v128h-67v-211q61 3 104 25t75 54q33 33 52 77q10 22 16.5 48.5t6.5 56.5q0 48 -12.5 84t-32.5 65t-45.5 51.5t-57.5 38.5
q-20 10 -47 18q-13 3 -27 5.5t-29 2.5q1 0 -0.5 0.5t-2.5 0.5v-5v-199zM391 73q-72 0 -136 26.5t-115 77.5t-77.5 115t-26.5 136t26.5 136t77.5 114q51 51 115 77.5t136 26.5q71 0 135 -26.5t115 -77.5q51 -50 77.5 -114t26.5 -136t-26.5 -136t-77.5 -115t-115 -77.5
t-135 -26.5zM391 748q-66 0 -124.5 -25t-102 -68.5t-69 -102t-25.5 -124.5t25.5 -124.5t69 -102t102 -69t124.5 -25.5t124 25.5t101.5 69t69 102t25.5 124.5t-25.5 124.5t-69 102t-101.5 68.5t-124 25zM235 410l10 -2q-3 -8 -9 -12q-8 -4 -13 -4q-7 0 -14 5q-5 7 -5 15
q0 7 4 15q3 7 9 10q5 4 12 4q5 0 13 -4q5 -5 5 -11l-9 -1l-3 6q-2 1 -6 1q-5 0 -7 -2q-5 -3 -6 -8q-2 -6 -2 -10q0 -6 3 -9q1 -3 6 -3q4 0 7 3q3 2 5 7zM281 414h-18l-5 -21h-10l10 47h10l-4 -18h18l4 18h10l-10 -47h-10zM306 393h-10l10 47h21q6 0 8 -1q4 -2 5 -4
q2 -4 2 -7q0 -7 -4 -10q-2 -3 -11 -5l4 -4q2 -3 3.5 -7l3.5 -9h-10q-1 2 -2 5t-3 7q-2 2 -2.5 4t-2.5 3h-4h-4zM311 420h5h11q1 1 2 1.5t2 1.5q1 2 1 5t-2 3q-1 1 -6 1h-10zM343 393l10 47h9l-10 -47h-9zM363 408l9 1q0 -4 2 -6q1 -3 7 -3q5 0 7 2q2 1 2 4t-1 4q-1 0 -7 3
l-8 4q-3 1 -4 4q-1 2 -1 6q0 6 4 10t12 4q9 0 13 -4q5 -5 5 -10l-9 -1q0 3 -3 5q-1 2 -6 2q-4 0 -5 -1q-2 -1 -2 -4q0 -2 1 -3t3 -1.5t4 -2.5q5 -2 7 -3l4 -2q3 -5 3 -9q0 -5 -5 -10t-14 -5q-4 0 -10 2q-5 3 -6 6q-2 2 -2 8zM447 393h-10l-9 47h10l6 -36l19 36h10zM467 393
l10 47h9l-10 -47h-9zM486 393l10 47h9l-8 -39h24l-2 -8h-33zM526 393l9 47h35l-1 -8h-26l-2 -10h24l-1 -8h-24l-3 -13h27l-2 -8h-36zM210 449l2 13h4l1 -1h2h1q0 -1 1 -1v-2v-2v-3l-2 -2l-2 -1q-1 -1 -3 -1h-4zM213 451h1q2 0 2 1h1q1 1 1 2q1 1 1 3q0 1 -1 1q0 1 -1 1
q0 1 -1 1h-2zM222 449l3 13h9l-1 -3h-6l-1 -2h6v-2h-6l-1 -4h7l-1 -2h-9zM234 453h2v-1q1 -1 2 -1q2 0 2 1q1 0 1 1l-1 1l-1 1q-2 0 -2 1q-1 0 -1 1l-1 1q0 1 0.5 1.5t0.5 1.5q1 0 1.5 0.5t1.5 0.5q2 0 2.5 -0.5t1.5 -0.5q1 -1 1 -3h-2l-1 1q0 1 -2 1q-1 0 -1 -1v-1
q0 -1 2 -1l2 -2q1 0 1 -2t-1 -3q-1 0 -1.5 -0.5t-2.5 -0.5q-1 0 -2 1l-2 1v2zM245 449l2 13h3l-3 -13h-2zM256 456h5l-1 -5q0 -1 -2 -1q-1 -1 -3 -1q-1 0 -1.5 0.5t-1.5 0.5q-2 2 -2 4q0 3 1 4q0 1 2 3q1 0 1.5 0.5t2.5 0.5q1 0 1.5 -0.5t1.5 -0.5q2 -2 2 -3h-2l-1 1
q-1 1 -2 1l-2 -1q-2 0 -2 -2v-3v-2q1 0 1 -0.5t1 -0.5h2l1 1l1 2h-3v2zM272 449h-2l-3 9l-2 -9h-2l2 13h2l4 -9l1 9h3zM275 449l2 13h9v-3h-7v-2h6v-2h-7v-4h7l-1 -2h-9zM286 449l3 13h3q1 0 1 -0.5t1 -0.5h1h1l1 -1v-2q1 -1 1 -2t-0.5 -1.5t-0.5 -1.5l-2 -2q-1 -1 -2 -1
q-1 -1 -3 -1h-4zM289 451h1q2 0 2 1h1l2 2v3v1l-1 1q-1 0 -1 0.5t-1 0.5h-1zM303 449l2 13h5l1 -1h2l1 -1v-1v-2q-1 -1 -2 -1l1 -1q1 -1 1 -2t-1 -2l-1 -1q-1 0 -1.5 -0.5t-1.5 -0.5h-6zM306 451h2q2 0 2 1h1v1v1q-1 1 -2 1h-3v-4zM307 457h2h2l1 1q0 1 -1 1h-2h-2v-2z
M321 449h-2l1 5l-4 8h3l2 -4v-2l1 1l1 2l2 3h3l-6 -8zM396 448h-2l-1 9l-4 -9h-3v13h2v-9l5 9h2l1 -9l4 9h2zM412 448h-2l-1 9l-4 -9h-3v13h2v-9l5 9h2l1 -9l4 9h2zM428 448h-2l-1 9l-4 -9h-3v13h2v-9l5 9h2l1 -9l4 9h2zM432 451h2v-3h-3zM445 453l2 -1q0 -1 -2 -3
q-1 0 -1.5 -0.5t-1.5 -0.5q-2 0 -4 2q-1 0 -1 3t1 4q0 1 2 3q1 0 1.5 0.5t1.5 0.5t1 -0.5t1 -0.5h1q2 -2 2 -3h-3v1q-1 0 -1 0.5t-1 0.5q-1 -1 -2 -1q-1 -1 -1 -2q-1 -1 -1 -3q0 -1 0.5 -1t0.5 -1q1 -1 2 -1q1 1 2 1q0 1 1 2zM457 454h-5l-1 -6h-3l3 13h2l-1 -5h5l1 5h2
l-2 -13h-3zM463 448h-3l3 13h5q1 0 1.5 -0.5t1.5 -0.5l1 -1v-2q0 -2 -1 -2q0 -1 -2 -1v-2q2 -2 2 -4h-2l-2 4q0 1 -1 1h-1h-1zM464 455h2h2l1 1l1 1q0 1 -1 1q0 1 -1 1h-3zM473 448l2 13h3l-3 -13h-2zM478 452h2v-1q1 0 1 -0.5t1 -0.5q2 0 2 1q1 0 1 1l-1 1l-1 1q-2 0 -2 1
q-1 0 -1 1l-1 1q0 1 0.5 1.5t0.5 1.5q1 0 1.5 0.5t1.5 0.5q2 0 2.5 -0.5t1.5 -0.5q1 -1 1 -3h-2l-1 1q0 1 -2 1q-1 0 -1 -1v-1q0 -1 2 -1l2 -2q1 0 1 -2t-1 -3q-1 0 -1.5 -0.5t-2.5 -0.5q-1 0 -2 1l-2 1v2zM495 448h-3l-2 13h2l2 -10l5 10h2zM500 448l2 13h3l-3 -13h-2z
M505 448l2 13h3l-2 -11h6l-1 -2h-8zM515 448l2 13h9v-2h-6l-1 -3h6v-2h-6l-1 -4h7l-1 -2h-9zM527 451h2v-3h-3zM540 453l2 -1q0 -1 -2 -3q-1 0 -1.5 -0.5t-1.5 -0.5q-2 0 -4 2q-1 0 -1 3t1 4q0 1 2 3q1 0 1.5 0.5t1.5 0.5t1 -0.5t1 -0.5h1q2 -2 2 -3h-3v1q-1 0 -1 0.5
t-1 0.5t-1 -0.5t-1 -0.5q-1 -1 -1 -2q-1 -1 -1 -3q0 -1 1 -2t2 -1l1 1zM544 453v2q1 1 1 1.5t1 1.5q0 2 2 2q1 1 3 1q1 0 3 -2t2 -3q0 -2 -0.5 -2.5t-0.5 -1.5l-3 -3q-1 0 -1.5 -0.5t-1.5 -0.5q-2 0 -3 1l-2 2v2zM546 453q0 -1 0.5 -1t0.5 -1q1 0 1 -0.5t1 -0.5t1 0.5t1 0.5
l2 2v3q0 1 -1 2t-2 1q-2 0 -2 -2q-2 -2 -2 -4zM563 448h-2l-1 11l-1 -11h-3l3 13h3l1 -9l4 9h3l-2 -13h-2l2 10z" />
    <glyph glyph-name="seven" unicode="7" 
d="M379 368l-33 -58.5l-34 -61.5q-51 21 -82 66q-16 22 -26.5 50t-10.5 63q0 36 10.5 64t25.5 50q31 43 83 66v-127h67v211q-61 -3 -104 -25t-75 -54q-30 -30 -52 -77q-10 -23 -16.5 -49t-6.5 -57q0 -48 13 -83.5t32 -64.5q39 -58 103 -91q11 -5 22.5 -9.5t24.5 -7.5
q25 -7 56 -9h2h1v5v199zM396 486l33 58l34 62q51 -23 82 -67q16 -22 26.5 -49.5t10.5 -63.5q0 -35 -10.5 -63.5t-25.5 -49.5q-31 -44 -83 -67v128h-67v-211q61 3 104 25t75 54q33 33 52 77q10 22 16.5 48.5t6.5 56.5q0 48 -12.5 84t-32.5 65t-45.5 51.5t-57.5 38.5
q-20 10 -47 18q-13 3 -27 5.5t-29 2.5q1 0 -0.5 0.5t-2.5 0.5v-5v-199zM391 73q-72 0 -136 26.5t-115 77.5t-77.5 115t-26.5 136t26.5 136t77.5 114q51 51 115 77.5t136 26.5q71 0 135 -26.5t115 -77.5q51 -50 77.5 -114t26.5 -136t-26.5 -136t-77.5 -115t-115 -77.5
t-135 -26.5zM391 748q-66 0 -124.5 -25t-102 -68.5t-69 -102t-25.5 -124.5t25.5 -124.5t69 -102t102 -69t124.5 -25.5t124 25.5t101.5 69t69 102t25.5 124.5t-25.5 124.5t-69 102t-101.5 68.5t-124 25zM235 410l10 -2q-3 -8 -9 -12q-8 -4 -13 -4q-7 0 -14 5q-5 7 -5 15
q0 7 4 15q3 7 9 10q5 4 12 4q5 0 13 -4q5 -5 5 -11l-9 -1l-3 6q-2 1 -6 1q-5 0 -7 -2q-5 -3 -6 -8q-2 -6 -2 -10q0 -6 3 -9q1 -3 6 -3q4 0 7 3q3 2 5 7zM281 414h-18l-5 -21h-10l10 47h10l-4 -18h18l4 18h10l-10 -47h-10zM306 393h-10l10 47h21q6 0 8 -1q4 -2 5 -4
q2 -4 2 -7q0 -7 -4 -10q-2 -3 -11 -5l4 -4q2 -3 3.5 -7l3.5 -9h-10q-1 2 -2 5t-3 7q-2 2 -2.5 4t-2.5 3h-4h-4zM311 420h5h11q1 1 2 1.5t2 1.5q1 2 1 5t-2 3q-1 1 -6 1h-10zM343 393l10 47h9l-10 -47h-9zM363 408l9 1q0 -4 2 -6q1 -3 7 -3q5 0 7 2q2 1 2 4t-1 4q-1 0 -7 3
l-8 4q-3 1 -4 4q-1 2 -1 6q0 6 4 10t12 4q9 0 13 -4q5 -5 5 -10l-9 -1q0 3 -3 5q-1 2 -6 2q-4 0 -5 -1q-2 -1 -2 -4q0 -2 1 -3t3 -1.5t4 -2.5q5 -2 7 -3l4 -2q3 -5 3 -9q0 -5 -5 -10t-14 -5q-4 0 -10 2q-5 3 -6 6q-2 2 -2 8zM447 393h-10l-9 47h10l6 -36l19 36h10zM467 393
l10 47h9l-10 -47h-9zM486 393l10 47h9l-8 -39h24l-2 -8h-33zM526 393l9 47h35l-1 -8h-26l-2 -10h24l-1 -8h-24l-3 -13h27l-2 -8h-36zM210 449l2 13h4l1 -1h2h1q0 -1 1 -1v-2v-2v-3l-2 -2l-2 -1q-1 -1 -3 -1h-4zM213 451h1q2 0 2 1h1q1 1 1 2q1 1 1 3q0 1 -1 1q0 1 -1 1
q0 1 -1 1h-2zM222 449l3 13h9l-1 -3h-6l-1 -2h6v-2h-6l-1 -4h7l-1 -2h-9zM234 453h2v-1q1 -1 2 -1q2 0 2 1q1 0 1 1l-1 1l-1 1q-2 0 -2 1q-1 0 -1 1l-1 1q0 1 0.5 1.5t0.5 1.5q1 0 1.5 0.5t1.5 0.5q2 0 2.5 -0.5t1.5 -0.5q1 -1 1 -3h-2l-1 1q0 1 -2 1q-1 0 -1 -1v-1
q0 -1 2 -1l2 -2q1 0 1 -2t-1 -3q-1 0 -1.5 -0.5t-2.5 -0.5q-1 0 -2 1l-2 1v2zM245 449l2 13h3l-3 -13h-2zM256 456h5l-1 -5q0 -1 -2 -1q-1 -1 -3 -1q-1 0 -1.5 0.5t-1.5 0.5q-2 2 -2 4q0 3 1 4q0 1 2 3q1 0 1.5 0.5t2.5 0.5q1 0 1.5 -0.5t1.5 -0.5q2 -2 2 -3h-2l-1 1
q-1 1 -2 1l-2 -1q-2 0 -2 -2v-3v-2q1 0 1 -0.5t1 -0.5h2l1 1l1 2h-3v2zM272 449h-2l-3 9l-2 -9h-2l2 13h2l4 -9l1 9h3zM275 449l2 13h9v-3h-7v-2h6v-2h-7v-4h7l-1 -2h-9zM286 449l3 13h3q1 0 1 -0.5t1 -0.5h1h1l1 -1v-2q1 -1 1 -2t-0.5 -1.5t-0.5 -1.5l-2 -2q-1 -1 -2 -1
q-1 -1 -3 -1h-4zM289 451h1q2 0 2 1h1l2 2v3v1l-1 1q-1 0 -1 0.5t-1 0.5h-1zM303 449l2 13h5l1 -1h2l1 -1v-1v-2q-1 -1 -2 -1l1 -1q1 -1 1 -2t-1 -2l-1 -1q-1 0 -1.5 -0.5t-1.5 -0.5h-6zM306 451h2q2 0 2 1h1v1v1q-1 1 -2 1h-3v-4zM307 457h2h2l1 1q0 1 -1 1h-2h-2v-2z
M321 449h-2l1 5l-4 8h3l2 -4v-2l1 1l1 2l2 3h3l-6 -8zM396 448h-2l-1 9l-4 -9h-3v13h2v-9l5 9h2l1 -9l4 9h2zM412 448h-2l-1 9l-4 -9h-3v13h2v-9l5 9h2l1 -9l4 9h2zM428 448h-2l-1 9l-4 -9h-3v13h2v-9l5 9h2l1 -9l4 9h2zM432 451h2v-3h-3zM445 453l2 -1q0 -1 -2 -3
q-1 0 -1.5 -0.5t-1.5 -0.5q-2 0 -4 2q-1 0 -1 3t1 4q0 1 2 3q1 0 1.5 0.5t1.5 0.5t1 -0.5t1 -0.5h1q2 -2 2 -3h-3v1q-1 0 -1 0.5t-1 0.5q-1 -1 -2 -1q-1 -1 -1 -2q-1 -1 -1 -3q0 -1 0.5 -1t0.5 -1q1 -1 2 -1q1 1 2 1q0 1 1 2zM457 454h-5l-1 -6h-3l3 13h2l-1 -5h5l1 5h2
l-2 -13h-3zM463 448h-3l3 13h5q1 0 1.5 -0.5t1.5 -0.5l1 -1v-2q0 -2 -1 -2q0 -1 -2 -1v-2q2 -2 2 -4h-2l-2 4q0 1 -1 1h-1h-1zM464 455h2h2l1 1l1 1q0 1 -1 1q0 1 -1 1h-3zM473 448l2 13h3l-3 -13h-2zM478 452h2v-1q1 0 1 -0.5t1 -0.5q2 0 2 1q1 0 1 1l-1 1l-1 1q-2 0 -2 1
q-1 0 -1 1l-1 1q0 1 0.5 1.5t0.5 1.5q1 0 1.5 0.5t1.5 0.5q2 0 2.5 -0.5t1.5 -0.5q1 -1 1 -3h-2l-1 1q0 1 -2 1q-1 0 -1 -1v-1q0 -1 2 -1l2 -2q1 0 1 -2t-1 -3q-1 0 -1.5 -0.5t-2.5 -0.5q-1 0 -2 1l-2 1v2zM495 448h-3l-2 13h2l2 -10l5 10h2zM500 448l2 13h3l-3 -13h-2z
M505 448l2 13h3l-2 -11h6l-1 -2h-8zM515 448l2 13h9v-2h-6l-1 -3h6v-2h-6l-1 -4h7l-1 -2h-9zM527 451h2v-3h-3zM540 453l2 -1q0 -1 -2 -3q-1 0 -1.5 -0.5t-1.5 -0.5q-2 0 -4 2q-1 0 -1 3t1 4q0 1 2 3q1 0 1.5 0.5t1.5 0.5t1 -0.5t1 -0.5h1q2 -2 2 -3h-3v1q-1 0 -1 0.5
t-1 0.5t-1 -0.5t-1 -0.5q-1 -1 -1 -2q-1 -1 -1 -3q0 -1 1 -2t2 -1l1 1zM544 453v2q1 1 1 1.5t1 1.5q0 2 2 2q1 1 3 1q1 0 3 -2t2 -3q0 -2 -0.5 -2.5t-0.5 -1.5l-3 -3q-1 0 -1.5 -0.5t-1.5 -0.5q-2 0 -3 1l-2 2v2zM546 453q0 -1 0.5 -1t0.5 -1q1 0 1 -0.5t1 -0.5t1 0.5t1 0.5
l2 2v3q0 1 -1 2t-2 1q-2 0 -2 -2q-2 -2 -2 -4zM563 448h-2l-1 11l-1 -11h-3l3 13h3l1 -9l4 9h3l-2 -13h-2l2 10z" />
    <glyph glyph-name="eight" unicode="8" 
d="M379 368l-33 -58.5l-34 -61.5q-51 21 -82 66q-16 22 -26.5 50t-10.5 63q0 36 10.5 64t25.5 50q31 43 83 66v-127h67v211q-61 -3 -104 -25t-75 -54q-30 -30 -52 -77q-10 -23 -16.5 -49t-6.5 -57q0 -48 13 -83.5t32 -64.5q39 -58 103 -91q11 -5 22.5 -9.5t24.5 -7.5
q25 -7 56 -9h2h1v5v199zM396 486l33 58l34 62q51 -23 82 -67q16 -22 26.5 -49.5t10.5 -63.5q0 -35 -10.5 -63.5t-25.5 -49.5q-31 -44 -83 -67v128h-67v-211q61 3 104 25t75 54q33 33 52 77q10 22 16.5 48.5t6.5 56.5q0 48 -12.5 84t-32.5 65t-45.5 51.5t-57.5 38.5
q-20 10 -47 18q-13 3 -27 5.5t-29 2.5q1 0 -0.5 0.5t-2.5 0.5v-5v-199zM391 73q-72 0 -136 26.5t-115 77.5t-77.5 115t-26.5 136t26.5 136t77.5 114q51 51 115 77.5t136 26.5q71 0 135 -26.5t115 -77.5q51 -50 77.5 -114t26.5 -136t-26.5 -136t-77.5 -115t-115 -77.5
t-135 -26.5zM391 748q-66 0 -124.5 -25t-102 -68.5t-69 -102t-25.5 -124.5t25.5 -124.5t69 -102t102 -69t124.5 -25.5t124 25.5t101.5 69t69 102t25.5 124.5t-25.5 124.5t-69 102t-101.5 68.5t-124 25zM235 410l10 -2q-3 -8 -9 -12q-8 -4 -13 -4q-7 0 -14 5q-5 7 -5 15
q0 7 4 15q3 7 9 10q5 4 12 4q5 0 13 -4q5 -5 5 -11l-9 -1l-3 6q-2 1 -6 1q-5 0 -7 -2q-5 -3 -6 -8q-2 -6 -2 -10q0 -6 3 -9q1 -3 6 -3q4 0 7 3q3 2 5 7zM281 414h-18l-5 -21h-10l10 47h10l-4 -18h18l4 18h10l-10 -47h-10zM306 393h-10l10 47h21q6 0 8 -1q4 -2 5 -4
q2 -4 2 -7q0 -7 -4 -10q-2 -3 -11 -5l4 -4q2 -3 3.5 -7l3.5 -9h-10q-1 2 -2 5t-3 7q-2 2 -2.5 4t-2.5 3h-4h-4zM311 420h5h11q1 1 2 1.5t2 1.5q1 2 1 5t-2 3q-1 1 -6 1h-10zM343 393l10 47h9l-10 -47h-9zM363 408l9 1q0 -4 2 -6q1 -3 7 -3q5 0 7 2q2 1 2 4t-1 4q-1 0 -7 3
l-8 4q-3 1 -4 4q-1 2 -1 6q0 6 4 10t12 4q9 0 13 -4q5 -5 5 -10l-9 -1q0 3 -3 5q-1 2 -6 2q-4 0 -5 -1q-2 -1 -2 -4q0 -2 1 -3t3 -1.5t4 -2.5q5 -2 7 -3l4 -2q3 -5 3 -9q0 -5 -5 -10t-14 -5q-4 0 -10 2q-5 3 -6 6q-2 2 -2 8zM447 393h-10l-9 47h10l6 -36l19 36h10zM467 393
l10 47h9l-10 -47h-9zM486 393l10 47h9l-8 -39h24l-2 -8h-33zM526 393l9 47h35l-1 -8h-26l-2 -10h24l-1 -8h-24l-3 -13h27l-2 -8h-36zM210 449l2 13h4l1 -1h2h1q0 -1 1 -1v-2v-2v-3l-2 -2l-2 -1q-1 -1 -3 -1h-4zM213 451h1q2 0 2 1h1q1 1 1 2q1 1 1 3q0 1 -1 1q0 1 -1 1
q0 1 -1 1h-2zM222 449l3 13h9l-1 -3h-6l-1 -2h6v-2h-6l-1 -4h7l-1 -2h-9zM234 453h2v-1q1 -1 2 -1q2 0 2 1q1 0 1 1l-1 1l-1 1q-2 0 -2 1q-1 0 -1 1l-1 1q0 1 0.5 1.5t0.5 1.5q1 0 1.5 0.5t1.5 0.5q2 0 2.5 -0.5t1.5 -0.5q1 -1 1 -3h-2l-1 1q0 1 -2 1q-1 0 -1 -1v-1
q0 -1 2 -1l2 -2q1 0 1 -2t-1 -3q-1 0 -1.5 -0.5t-2.5 -0.5q-1 0 -2 1l-2 1v2zM245 449l2 13h3l-3 -13h-2zM256 456h5l-1 -5q0 -1 -2 -1q-1 -1 -3 -1q-1 0 -1.5 0.5t-1.5 0.5q-2 2 -2 4q0 3 1 4q0 1 2 3q1 0 1.5 0.5t2.5 0.5q1 0 1.5 -0.5t1.5 -0.5q2 -2 2 -3h-2l-1 1
q-1 1 -2 1l-2 -1q-2 0 -2 -2v-3v-2q1 0 1 -0.5t1 -0.5h2l1 1l1 2h-3v2zM272 449h-2l-3 9l-2 -9h-2l2 13h2l4 -9l1 9h3zM275 449l2 13h9v-3h-7v-2h6v-2h-7v-4h7l-1 -2h-9zM286 449l3 13h3q1 0 1 -0.5t1 -0.5h1h1l1 -1v-2q1 -1 1 -2t-0.5 -1.5t-0.5 -1.5l-2 -2q-1 -1 -2 -1
q-1 -1 -3 -1h-4zM289 451h1q2 0 2 1h1l2 2v3v1l-1 1q-1 0 -1 0.5t-1 0.5h-1zM303 449l2 13h5l1 -1h2l1 -1v-1v-2q-1 -1 -2 -1l1 -1q1 -1 1 -2t-1 -2l-1 -1q-1 0 -1.5 -0.5t-1.5 -0.5h-6zM306 451h2q2 0 2 1h1v1v1q-1 1 -2 1h-3v-4zM307 457h2h2l1 1q0 1 -1 1h-2h-2v-2z
M321 449h-2l1 5l-4 8h3l2 -4v-2l1 1l1 2l2 3h3l-6 -8zM396 448h-2l-1 9l-4 -9h-3v13h2v-9l5 9h2l1 -9l4 9h2zM412 448h-2l-1 9l-4 -9h-3v13h2v-9l5 9h2l1 -9l4 9h2zM428 448h-2l-1 9l-4 -9h-3v13h2v-9l5 9h2l1 -9l4 9h2zM432 451h2v-3h-3zM445 453l2 -1q0 -1 -2 -3
q-1 0 -1.5 -0.5t-1.5 -0.5q-2 0 -4 2q-1 0 -1 3t1 4q0 1 2 3q1 0 1.5 0.5t1.5 0.5t1 -0.5t1 -0.5h1q2 -2 2 -3h-3v1q-1 0 -1 0.5t-1 0.5q-1 -1 -2 -1q-1 -1 -1 -2q-1 -1 -1 -3q0 -1 0.5 -1t0.5 -1q1 -1 2 -1q1 1 2 1q0 1 1 2zM457 454h-5l-1 -6h-3l3 13h2l-1 -5h5l1 5h2
l-2 -13h-3zM463 448h-3l3 13h5q1 0 1.5 -0.5t1.5 -0.5l1 -1v-2q0 -2 -1 -2q0 -1 -2 -1v-2q2 -2 2 -4h-2l-2 4q0 1 -1 1h-1h-1zM464 455h2h2l1 1l1 1q0 1 -1 1q0 1 -1 1h-3zM473 448l2 13h3l-3 -13h-2zM478 452h2v-1q1 0 1 -0.5t1 -0.5q2 0 2 1q1 0 1 1l-1 1l-1 1q-2 0 -2 1
q-1 0 -1 1l-1 1q0 1 0.5 1.5t0.5 1.5q1 0 1.5 0.5t1.5 0.5q2 0 2.5 -0.5t1.5 -0.5q1 -1 1 -3h-2l-1 1q0 1 -2 1q-1 0 -1 -1v-1q0 -1 2 -1l2 -2q1 0 1 -2t-1 -3q-1 0 -1.5 -0.5t-2.5 -0.5q-1 0 -2 1l-2 1v2zM495 448h-3l-2 13h2l2 -10l5 10h2zM500 448l2 13h3l-3 -13h-2z
M505 448l2 13h3l-2 -11h6l-1 -2h-8zM515 448l2 13h9v-2h-6l-1 -3h6v-2h-6l-1 -4h7l-1 -2h-9zM527 451h2v-3h-3zM540 453l2 -1q0 -1 -2 -3q-1 0 -1.5 -0.5t-1.5 -0.5q-2 0 -4 2q-1 0 -1 3t1 4q0 1 2 3q1 0 1.5 0.5t1.5 0.5t1 -0.5t1 -0.5h1q2 -2 2 -3h-3v1q-1 0 -1 0.5
t-1 0.5t-1 -0.5t-1 -0.5q-1 -1 -1 -2q-1 -1 -1 -3q0 -1 1 -2t2 -1l1 1zM544 453v2q1 1 1 1.5t1 1.5q0 2 2 2q1 1 3 1q1 0 3 -2t2 -3q0 -2 -0.5 -2.5t-0.5 -1.5l-3 -3q-1 0 -1.5 -0.5t-1.5 -0.5q-2 0 -3 1l-2 2v2zM546 453q0 -1 0.5 -1t0.5 -1q1 0 1 -0.5t1 -0.5t1 0.5t1 0.5
l2 2v3q0 1 -1 2t-2 1q-2 0 -2 -2q-2 -2 -2 -4zM563 448h-2l-1 11l-1 -11h-3l3 13h3l1 -9l4 9h3l-2 -13h-2l2 10z" />
    <glyph glyph-name="nine" unicode="9" 
d="M379 368l-33 -58.5l-34 -61.5q-51 21 -82 66q-16 22 -26.5 50t-10.5 63q0 36 10.5 64t25.5 50q31 43 83 66v-127h67v211q-61 -3 -104 -25t-75 -54q-30 -30 -52 -77q-10 -23 -16.5 -49t-6.5 -57q0 -48 13 -83.5t32 -64.5q39 -58 103 -91q11 -5 22.5 -9.5t24.5 -7.5
q25 -7 56 -9h2h1v5v199zM396 486l33 58l34 62q51 -23 82 -67q16 -22 26.5 -49.5t10.5 -63.5q0 -35 -10.5 -63.5t-25.5 -49.5q-31 -44 -83 -67v128h-67v-211q61 3 104 25t75 54q33 33 52 77q10 22 16.5 48.5t6.5 56.5q0 48 -12.5 84t-32.5 65t-45.5 51.5t-57.5 38.5
q-20 10 -47 18q-13 3 -27 5.5t-29 2.5q1 0 -0.5 0.5t-2.5 0.5v-5v-199zM391 73q-72 0 -136 26.5t-115 77.5t-77.5 115t-26.5 136t26.5 136t77.5 114q51 51 115 77.5t136 26.5q71 0 135 -26.5t115 -77.5q51 -50 77.5 -114t26.5 -136t-26.5 -136t-77.5 -115t-115 -77.5
t-135 -26.5zM391 748q-66 0 -124.5 -25t-102 -68.5t-69 -102t-25.5 -124.5t25.5 -124.5t69 -102t102 -69t124.5 -25.5t124 25.5t101.5 69t69 102t25.5 124.5t-25.5 124.5t-69 102t-101.5 68.5t-124 25zM235 410l10 -2q-3 -8 -9 -12q-8 -4 -13 -4q-7 0 -14 5q-5 7 -5 15
q0 7 4 15q3 7 9 10q5 4 12 4q5 0 13 -4q5 -5 5 -11l-9 -1l-3 6q-2 1 -6 1q-5 0 -7 -2q-5 -3 -6 -8q-2 -6 -2 -10q0 -6 3 -9q1 -3 6 -3q4 0 7 3q3 2 5 7zM281 414h-18l-5 -21h-10l10 47h10l-4 -18h18l4 18h10l-10 -47h-10zM306 393h-10l10 47h21q6 0 8 -1q4 -2 5 -4
q2 -4 2 -7q0 -7 -4 -10q-2 -3 -11 -5l4 -4q2 -3 3.5 -7l3.5 -9h-10q-1 2 -2 5t-3 7q-2 2 -2.5 4t-2.5 3h-4h-4zM311 420h5h11q1 1 2 1.5t2 1.5q1 2 1 5t-2 3q-1 1 -6 1h-10zM343 393l10 47h9l-10 -47h-9zM363 408l9 1q0 -4 2 -6q1 -3 7 -3q5 0 7 2q2 1 2 4t-1 4q-1 0 -7 3
l-8 4q-3 1 -4 4q-1 2 -1 6q0 6 4 10t12 4q9 0 13 -4q5 -5 5 -10l-9 -1q0 3 -3 5q-1 2 -6 2q-4 0 -5 -1q-2 -1 -2 -4q0 -2 1 -3t3 -1.5t4 -2.5q5 -2 7 -3l4 -2q3 -5 3 -9q0 -5 -5 -10t-14 -5q-4 0 -10 2q-5 3 -6 6q-2 2 -2 8zM447 393h-10l-9 47h10l6 -36l19 36h10zM467 393
l10 47h9l-10 -47h-9zM486 393l10 47h9l-8 -39h24l-2 -8h-33zM526 393l9 47h35l-1 -8h-26l-2 -10h24l-1 -8h-24l-3 -13h27l-2 -8h-36zM210 449l2 13h4l1 -1h2h1q0 -1 1 -1v-2v-2v-3l-2 -2l-2 -1q-1 -1 -3 -1h-4zM213 451h1q2 0 2 1h1q1 1 1 2q1 1 1 3q0 1 -1 1q0 1 -1 1
q0 1 -1 1h-2zM222 449l3 13h9l-1 -3h-6l-1 -2h6v-2h-6l-1 -4h7l-1 -2h-9zM234 453h2v-1q1 -1 2 -1q2 0 2 1q1 0 1 1l-1 1l-1 1q-2 0 -2 1q-1 0 -1 1l-1 1q0 1 0.5 1.5t0.5 1.5q1 0 1.5 0.5t1.5 0.5q2 0 2.5 -0.5t1.5 -0.5q1 -1 1 -3h-2l-1 1q0 1 -2 1q-1 0 -1 -1v-1
q0 -1 2 -1l2 -2q1 0 1 -2t-1 -3q-1 0 -1.5 -0.5t-2.5 -0.5q-1 0 -2 1l-2 1v2zM245 449l2 13h3l-3 -13h-2zM256 456h5l-1 -5q0 -1 -2 -1q-1 -1 -3 -1q-1 0 -1.5 0.5t-1.5 0.5q-2 2 -2 4q0 3 1 4q0 1 2 3q1 0 1.5 0.5t2.5 0.5q1 0 1.5 -0.5t1.5 -0.5q2 -2 2 -3h-2l-1 1
q-1 1 -2 1l-2 -1q-2 0 -2 -2v-3v-2q1 0 1 -0.5t1 -0.5h2l1 1l1 2h-3v2zM272 449h-2l-3 9l-2 -9h-2l2 13h2l4 -9l1 9h3zM275 449l2 13h9v-3h-7v-2h6v-2h-7v-4h7l-1 -2h-9zM286 449l3 13h3q1 0 1 -0.5t1 -0.5h1h1l1 -1v-2q1 -1 1 -2t-0.5 -1.5t-0.5 -1.5l-2 -2q-1 -1 -2 -1
q-1 -1 -3 -1h-4zM289 451h1q2 0 2 1h1l2 2v3v1l-1 1q-1 0 -1 0.5t-1 0.5h-1zM303 449l2 13h5l1 -1h2l1 -1v-1v-2q-1 -1 -2 -1l1 -1q1 -1 1 -2t-1 -2l-1 -1q-1 0 -1.5 -0.5t-1.5 -0.5h-6zM306 451h2q2 0 2 1h1v1v1q-1 1 -2 1h-3v-4zM307 457h2h2l1 1q0 1 -1 1h-2h-2v-2z
M321 449h-2l1 5l-4 8h3l2 -4v-2l1 1l1 2l2 3h3l-6 -8zM396 448h-2l-1 9l-4 -9h-3v13h2v-9l5 9h2l1 -9l4 9h2zM412 448h-2l-1 9l-4 -9h-3v13h2v-9l5 9h2l1 -9l4 9h2zM428 448h-2l-1 9l-4 -9h-3v13h2v-9l5 9h2l1 -9l4 9h2zM432 451h2v-3h-3zM445 453l2 -1q0 -1 -2 -3
q-1 0 -1.5 -0.5t-1.5 -0.5q-2 0 -4 2q-1 0 -1 3t1 4q0 1 2 3q1 0 1.5 0.5t1.5 0.5t1 -0.5t1 -0.5h1q2 -2 2 -3h-3v1q-1 0 -1 0.5t-1 0.5q-1 -1 -2 -1q-1 -1 -1 -2q-1 -1 -1 -3q0 -1 0.5 -1t0.5 -1q1 -1 2 -1q1 1 2 1q0 1 1 2zM457 454h-5l-1 -6h-3l3 13h2l-1 -5h5l1 5h2
l-2 -13h-3zM463 448h-3l3 13h5q1 0 1.5 -0.5t1.5 -0.5l1 -1v-2q0 -2 -1 -2q0 -1 -2 -1v-2q2 -2 2 -4h-2l-2 4q0 1 -1 1h-1h-1zM464 455h2h2l1 1l1 1q0 1 -1 1q0 1 -1 1h-3zM473 448l2 13h3l-3 -13h-2zM478 452h2v-1q1 0 1 -0.5t1 -0.5q2 0 2 1q1 0 1 1l-1 1l-1 1q-2 0 -2 1
q-1 0 -1 1l-1 1q0 1 0.5 1.5t0.5 1.5q1 0 1.5 0.5t1.5 0.5q2 0 2.5 -0.5t1.5 -0.5q1 -1 1 -3h-2l-1 1q0 1 -2 1q-1 0 -1 -1v-1q0 -1 2 -1l2 -2q1 0 1 -2t-1 -3q-1 0 -1.5 -0.5t-2.5 -0.5q-1 0 -2 1l-2 1v2zM495 448h-3l-2 13h2l2 -10l5 10h2zM500 448l2 13h3l-3 -13h-2z
M505 448l2 13h3l-2 -11h6l-1 -2h-8zM515 448l2 13h9v-2h-6l-1 -3h6v-2h-6l-1 -4h7l-1 -2h-9zM527 451h2v-3h-3zM540 453l2 -1q0 -1 -2 -3q-1 0 -1.5 -0.5t-1.5 -0.5q-2 0 -4 2q-1 0 -1 3t1 4q0 1 2 3q1 0 1.5 0.5t1.5 0.5t1 -0.5t1 -0.5h1q2 -2 2 -3h-3v1q-1 0 -1 0.5
t-1 0.5t-1 -0.5t-1 -0.5q-1 -1 -1 -2q-1 -1 -1 -3q0 -1 1 -2t2 -1l1 1zM544 453v2q1 1 1 1.5t1 1.5q0 2 2 2q1 1 3 1q1 0 3 -2t2 -3q0 -2 -0.5 -2.5t-0.5 -1.5l-3 -3q-1 0 -1.5 -0.5t-1.5 -0.5q-2 0 -3 1l-2 2v2zM546 453q0 -1 0.5 -1t0.5 -1q1 0 1 -0.5t1 -0.5t1 0.5t1 0.5
l2 2v3q0 1 -1 2t-2 1q-2 0 -2 -2q-2 -2 -2 -4zM563 448h-2l-1 11l-1 -11h-3l3 13h3l1 -9l4 9h3l-2 -13h-2l2 10z" />
    <glyph glyph-name="question" unicode="?" horiz-adv-x="558" 
d="M293 54v-54h-28v54h28zM279 729q62 0 105.5 -19t72 -47t44.5 -61t24 -61.5t9.5 -48l1.5 -19.5q0 -1 -1.5 -19.5t-8.5 -46.5t-21.5 -60.5t-41.5 -60.5t-68.5 -48t-101.5 -22v-81h-28v108h14q57 0 96 16.5t64.5 41t39.5 53.5t20.5 54.5t8 43.5t1.5 21q0 2 -1.5 20
t-8.5 43.5t-21.5 54.5t-40 53.5t-64 41t-94.5 16.5t-94.5 -16.5t-64 -41t-40 -53.5t-21 -54.5t-8.5 -44t-2 -20.5l-27 1l1.5 19.5t9.5 48t24 61.5t44.5 61t72 47t105.5 19z" />
    <glyph glyph-name="A" unicode="A" horiz-adv-x="562" 
d="M417 249l-136 375l-136 -375h272zM135 222l-80 -222h-30l88 251l168 478l168 -478l88 -251h-30l-80 222h-292z" />
    <glyph glyph-name="B" unicode="B" horiz-adv-x="486" 
d="M202 729q43 0 80 -14t64.5 -40t43 -62t15.5 -80q0 -65 -30.5 -111t-92.5 -69q36 -8 68 -23t56.5 -37.5t38.5 -53t14 -70.5q0 -50 -23.5 -82.5t-60 -51.5t-80 -27t-83.5 -8h-185v729h175zM202 365q37 0 69.5 12t56 33.5t37 52.5t13.5 70t-13.5 70.5t-37 53t-55.5 33.5
t-70 12h-148v-337h148zM212 27h7q34 0 71.5 6.5t69 23t52 43.5t20.5 69q0 44 -21.5 75.5t-55.5 52t-74.5 30.5t-78.5 10h-148v-310h158z" />
    <glyph glyph-name="C" unicode="C" horiz-adv-x="474" 
d="M237 729q53 0 90 -19t61 -47t37 -61t19.5 -61.5t7.5 -48l1 -19.5h-27q0 2 -1 20t-6.5 43.5t-17 54.5t-32.5 53.5t-53 41t-79 16.5t-79 -16.5t-53 -41t-32.5 -53.5t-17 -54.5t-6.5 -43.5t-1 -20v-217q0 -2 1 -20t6.5 -43.5t17 -54.5t32.5 -53.5t53 -41t79 -16.5t79 16.5
t53 41t32.5 53.5t17 54.5t6.5 43.5t1 20h27q0 -1 -1 -20t-7.5 -47.5t-19.5 -61.5t-37 -61t-61 -47t-90 -19q-54 0 -90.5 19t-60.5 47t-37 61t-19.5 61.5t-7.5 47.5t-1 20v217l1 19.5t7.5 48t19.5 61.5t37 61t61 47t90 19z" />
    <glyph glyph-name="D" unicode="D" horiz-adv-x="460" 
d="M409 256v214q0 48 -12.5 90t-38 73.5t-63.5 50t-89 18.5h-155v-675h155q17 0 37 4.5t35 10.5q70 28 100.5 85t30.5 129zM24 0v729h182q57 0 100 -20t72 -55t43.5 -82t14.5 -101v-215q0 -83 -36 -145.5t-116 -93.5q-17 -6 -38.5 -11.5t-39.5 -5.5h-182z" />
    <glyph glyph-name="E" unicode="E" horiz-adv-x="419" 
d="M54 27h338v-27h-365v729h365v-27h-338v-432h338v-27h-338v-216z" />
    <glyph glyph-name="F" unicode="F" horiz-adv-x="419" 
d="M52 229v-229h-27v729h365v-27h-338v-446h342v-27h-342z" />
    <glyph glyph-name="G" unicode="G" horiz-adv-x="478" 
d="M455 375v-119q0 -1 -1 -20t-7.5 -47.5t-19.5 -61.5t-37 -61t-61 -47t-90 -19q-54 0 -90.5 19t-60.5 47t-37 61t-19.5 61.5t-7.5 47.5t-1 20v217l1 19.5t7.5 48t19.5 61.5t37 61t61 47t90 19t90 -19t61 -47t37 -61t19.5 -61.5t7.5 -48l1 -19.5h-27q0 2 -1 20t-6.5 43.5
t-17 54.5t-32.5 53.5t-53 41t-79 16.5t-79 -16.5t-53 -41t-32.5 -53.5t-17 -54.5t-6.5 -43.5t-1 -20v-217q0 -2 1 -20t6.5 -43.5t17 -54.5t32.5 -53.5t53 -41t79 -16.5t79 16.5t53 41t32.5 53.5t17 54.5t6.5 43.5t1 20v92h-189v27h216z" />
    <glyph glyph-name="H" unicode="H" horiz-adv-x="450" 
d="M49 229v-229h-27v729h27v-473h352v473h27v-729h-27v229h-352z" />
    <glyph glyph-name="I" unicode="I" horiz-adv-x="96" 
d="M62 729v-729h-28v729h28z" />
    <glyph glyph-name="J" unicode="J" horiz-adv-x="421" 
d="M396 243q0 -1 -1 -20t-7 -47.5t-17.5 -61.5t-32 -61t-52 -47t-76.5 -19t-76 19t-52 47t-32 61t-17 61.5t-7 47.5t-1 20h27q0 -1 1 -18t6 -42.5t14.5 -55t27.5 -55t44.5 -42.5t64.5 -17t65 17t44.5 42.5t27.5 55t15 55t6 43l1 17.5v486h27v-486z" />
    <glyph glyph-name="K" unicode="K" horiz-adv-x="434" 
d="M48 243v-243h-27v256v473h27v-441l331 441h32l-179 -239l181 -490h-26l-174 464z" />
    <glyph glyph-name="L" unicode="L" horiz-adv-x="326" 
d="M307 27v-27h-288v729h27v-702h261z" />
    <glyph glyph-name="M" unicode="M" horiz-adv-x="564" 
d="M539 727v-727h-27v624l-230 -409l-230 409v-624h-27v727l257 -457z" />
    <glyph glyph-name="N" unicode="N" horiz-adv-x="505" 
d="M18 729l442 -642v642h27v-729l-442 642v-642h-27v729z" />
    <glyph glyph-name="O" unicode="O" horiz-adv-x="493" 
d="M445 256v217q0 2 -1 20t-7 43.5t-18 54.5t-34 53.5t-56 41t-83 16.5t-82.5 -16.5t-55.5 -41t-34.5 -53.5t-18 -54.5t-6.5 -43.5t-1 -20v-217q0 -2 1 -20t7 -43.5t18 -54.5t34 -53.5t55.5 -41t82.5 -16.5t83 16.5t56 41t34 53.5t18 54.5t7 43.5t1 20zM21 256v217l1.5 19.5
t7.5 48t20 61.5t39 61t63.5 47t93.5 19q56 0 94.5 -19t63.5 -47t38.5 -61t20 -61.5t8 -48l1.5 -19.5v-217q0 -1 -1.5 -20t-8 -47.5t-20 -61.5t-38.5 -61t-63.5 -47t-94.5 -19t-94 19t-63 47t-38.5 61t-20.5 61.5t-8 47.5t-1 20z" />
    <glyph glyph-name="P" unicode="P" horiz-adv-x="452" 
d="M429 473q0 -27 -3.5 -54.5t-11.5 -53.5t-21 -50t-33 -43q-27 -25 -62 -40.5t-72 -15.5h-176v-216h-27v729h203q37 0 72 -15.5t62 -40.5q40 -38 54.5 -92.5t14.5 -107.5zM402 473q0 47 -13 97t-48 84q-23 21 -53 34.5t-62 13.5h-176v-459h176q32 0 62 14t53 35
q18 16 29.5 38t18.5 46t10 49t3 48z" />
    <glyph glyph-name="Q" unicode="Q" horiz-adv-x="493" 
d="M336 19q40 20 62 54.5t32.5 68t12.5 59t2 28.5v244q0 2 -1 20t-7 43.5t-18 54.5t-34 53.5t-56 41t-83 16.5t-82.5 -16.5t-55.5 -41t-34.5 -53.5t-18 -54.5t-6.5 -43.5t-1 -20v-244q0 -2 1 -20t7 -43.5t18 -54.5t34 -53.5t55.5 -41t82.5 -16.5q36 0 65 9l-101 170l24 13z
M472 473v-244q0 -1 -2 -28.5t-14 -65t-36.5 -76.5t-69.5 -62l56 -94l-32 -1l-49 84q-35 -12 -79 -12q-56 0 -94 18.5t-63 47t-38.5 61.5t-20.5 61t-8 47.5l-1 19.5v244l1.5 19.5t7.5 48t20 61.5t39 61t63.5 47t93.5 19q56 0 94.5 -19t63.5 -47t38.5 -61t20 -61.5t8 -48z" />
    <glyph glyph-name="R" unicode="R" horiz-adv-x="462" 
d="M55 243h176l11 1t28 5.5t37 14.5t39 28q61 61 61 181t-61 181q-19 18 -39.5 28t-37 14.5t-27.5 5l-11 0.5h-176v-459zM225 216h-170v-216h-27v729h203q1 0 14 -0.5t32 -6t42.5 -17t45.5 -32.5q69 -69 69 -200q0 -132 -69 -201q-29 -27 -58.5 -38.5t-49.5 -15.5l170 -218
h-34z" />
    <glyph glyph-name="S" unicode="S" horiz-adv-x="430" 
d="M215 27q41 0 69 12t46.5 30t28.5 39.5t14.5 40.5t5.5 32t1 15t-3 24.5t-18.5 48.5t-49 47t-94.5 21q-48 0 -80.5 14.5t-54 36t-33 47t-17 47.5t-6.5 36.5l-1 14.5l1 15t6.5 36.5t17 47t33 47t54.5 36t80 14.5t80 -14.5t54.5 -36t33 -47t17 -47t6.5 -36.5l1 -15h-27
q0 2 -1 15t-5.5 32t-14.5 40.5t-28.5 39.5t-46.5 30t-69 12t-69 -12t-46.5 -30t-28.5 -39.5t-14.5 -40.5t-5.5 -32t-1 -15t1 -15t5.5 -31.5t14.5 -40t28.5 -39.5t46.5 -30t69 -12q47 0 80 -12.5t54.5 -31t33 -40.5t17 -41t6.5 -31.5l1 -12.5q0 -1 -1 -15.5t-6.5 -36t-17 -47
t-33 -47t-54.5 -36t-80 -14.5q-48 0 -80.5 14.5t-54 36t-33 47t-17 47t-6.5 36.5l-1 15h27q0 -2 1 -15t5.5 -32t14.5 -40.5t28.5 -39.5t46.5 -30t69 -12z" />
    <glyph glyph-name="T" unicode="T" horiz-adv-x="525" 
d="M276 702v-702h-27v702h27zM276 716v-14h-27v14h27zM19 729h487v-27h-230v14h-27v-14h-230v27z" />
    <glyph glyph-name="U" unicode="U" horiz-adv-x="503" 
d="M477 256q0 -1 -2 -20t-9 -47.5t-21.5 -61.5t-39.5 -61t-62.5 -47t-90.5 -19q-54 0 -91.5 19t-62.5 47t-39.5 61t-21.5 61.5t-9 47.5t-2 20v473h27v-473q0 -2 1.5 -20t8 -43.5t19 -54.5t35 -53.5t55.5 -41t80 -16.5t80 16.5t55 41t34.5 53.5t19 54.5t8 44t1.5 20.5v472h27
v-473z" />
    <glyph glyph-name="V" unicode="V" horiz-adv-x="509" 
d="M488 729l-234 -729l-233 729h28l205 -641l206 641h28z" />
    <glyph glyph-name="W" unicode="W" horiz-adv-x="566" 
d="M283 456l-257 -456v727h27v-624l230 408l230 -408v624h27v-727z" />
    <glyph glyph-name="X" unicode="X" horiz-adv-x="491" 
d="M246 330l-189 -330h-31l204 358l-212 371h31l197 -344l196 344h31l-212 -371l204 -358h-31z" />
    <glyph glyph-name="Y" unicode="Y" horiz-adv-x="499" 
d="M250 273l201 456h30l-218 -486v-243h-27v243l-218 486h30z" />
    <glyph glyph-name="Z" unicode="Z" horiz-adv-x="547" 
d="M56 27h461v-27h-512l486 702h-461v27h512z" />
    <glyph glyph-name="a" unicode="a" horiz-adv-x="562" 
d="M417 249l-136 375l-136 -375h272zM135 222l-80 -222h-30l88 251l168 478l168 -478l88 -251h-30l-80 222h-292z" />
    <glyph glyph-name="b" unicode="b" horiz-adv-x="486" 
d="M202 729q43 0 80 -14t64.5 -40t43 -62t15.5 -80q0 -65 -30.5 -111t-92.5 -69q36 -8 68 -23t56.5 -37.5t38.5 -53t14 -70.5q0 -50 -23.5 -82.5t-60 -51.5t-80 -27t-83.5 -8h-185v729h175zM202 365q37 0 69.5 12t56 33.5t37 52.5t13.5 70t-13.5 70.5t-37 53t-55.5 33.5
t-70 12h-148v-337h148zM212 27h7q34 0 71.5 6.5t69 23t52 43.5t20.5 69q0 44 -21.5 75.5t-55.5 52t-74.5 30.5t-78.5 10h-148v-310h158z" />
    <glyph glyph-name="c" unicode="c" horiz-adv-x="474" 
d="M237 729q53 0 90 -19t61 -47t37 -61t19.5 -61.5t7.5 -48l1 -19.5h-27q0 2 -1 20t-6.5 43.5t-17 54.5t-32.5 53.5t-53 41t-79 16.5t-79 -16.5t-53 -41t-32.5 -53.5t-17 -54.5t-6.5 -43.5t-1 -20v-217q0 -2 1 -20t6.5 -43.5t17 -54.5t32.5 -53.5t53 -41t79 -16.5t79 16.5
t53 41t32.5 53.5t17 54.5t6.5 43.5t1 20h27q0 -1 -1 -20t-7.5 -47.5t-19.5 -61.5t-37 -61t-61 -47t-90 -19q-54 0 -90.5 19t-60.5 47t-37 61t-19.5 61.5t-7.5 47.5t-1 20v217l1 19.5t7.5 48t19.5 61.5t37 61t61 47t90 19z" />
    <glyph glyph-name="d" unicode="d" horiz-adv-x="460" 
d="M409 256v214q0 48 -12.5 90t-38 73.5t-63.5 50t-89 18.5h-155v-675h155q17 0 37 4.5t35 10.5q70 28 100.5 85t30.5 129zM24 0v729h182q57 0 100 -20t72 -55t43.5 -82t14.5 -101v-215q0 -83 -36 -145.5t-116 -93.5q-17 -6 -38.5 -11.5t-39.5 -5.5h-182z" />
    <glyph glyph-name="e" unicode="e" horiz-adv-x="419" 
d="M54 27h338v-27h-365v729h365v-27h-338v-432h338v-27h-338v-216z" />
    <glyph glyph-name="f" unicode="f" horiz-adv-x="419" 
d="M52 229v-229h-27v729h365v-27h-338v-446h342v-27h-342z" />
    <glyph glyph-name="g" unicode="g" horiz-adv-x="478" 
d="M455 375v-119q0 -1 -1 -20t-7.5 -47.5t-19.5 -61.5t-37 -61t-61 -47t-90 -19q-54 0 -90.5 19t-60.5 47t-37 61t-19.5 61.5t-7.5 47.5t-1 20v217l1 19.5t7.5 48t19.5 61.5t37 61t61 47t90 19t90 -19t61 -47t37 -61t19.5 -61.5t7.5 -48l1 -19.5h-27q0 2 -1 20t-6.5 43.5
t-17 54.5t-32.5 53.5t-53 41t-79 16.5t-79 -16.5t-53 -41t-32.5 -53.5t-17 -54.5t-6.5 -43.5t-1 -20v-217q0 -2 1 -20t6.5 -43.5t17 -54.5t32.5 -53.5t53 -41t79 -16.5t79 16.5t53 41t32.5 53.5t17 54.5t6.5 43.5t1 20v92h-189v27h216z" />
    <glyph glyph-name="h" unicode="h" horiz-adv-x="450" 
d="M49 229v-229h-27v729h27v-473h352v473h27v-729h-27v229h-352z" />
    <glyph glyph-name="i" unicode="i" horiz-adv-x="96" 
d="M62 729v-729h-28v729h28zM60 844v-54h-27v54h27z" />
    <glyph glyph-name="j" unicode="j" horiz-adv-x="421" 
d="M396 243q0 -1 -1 -20t-7 -47.5t-17.5 -61.5t-32 -61t-52 -47t-76.5 -19t-76 19t-52 47t-32 61t-17 61.5t-7 47.5t-1 20h27q0 -1 1 -18t6 -42.5t14.5 -55t27.5 -55t44.5 -42.5t64.5 -17t65 17t44.5 42.5t27.5 55t15 55t6 43l1 17.5v486h27v-486z" />
    <glyph glyph-name="k" unicode="k" horiz-adv-x="434" 
d="M48 243v-243h-27v256v473h27v-441l331 441h32l-179 -239l181 -490h-26l-174 464z" />
    <glyph glyph-name="l" unicode="l" horiz-adv-x="326" 
d="M307 27v-27h-288v729h27v-702h261z" />
    <glyph glyph-name="m" unicode="m" horiz-adv-x="564" 
d="M539 727v-727h-27v624l-230 -409l-230 409v-624h-27v727l257 -457z" />
    <glyph glyph-name="n" unicode="n" horiz-adv-x="505" 
d="M18 729l442 -642v642h27v-729l-442 642v-642h-27v729z" />
    <glyph glyph-name="o" unicode="o" horiz-adv-x="493" 
d="M445 256v217q0 2 -1 20t-7 43.5t-18 54.5t-34 53.5t-56 41t-83 16.5t-82.5 -16.5t-55.5 -41t-34.5 -53.5t-18 -54.5t-6.5 -43.5t-1 -20v-217q0 -2 1 -20t7 -43.5t18 -54.5t34 -53.5t55.5 -41t82.5 -16.5t83 16.5t56 41t34 53.5t18 54.5t7 43.5t1 20zM21 256v217l1.5 19.5
t7.5 48t20 61.5t39 61t63.5 47t93.5 19q56 0 94.5 -19t63.5 -47t38.5 -61t20 -61.5t8 -48l1.5 -19.5v-217q0 -1 -1.5 -20t-8 -47.5t-20 -61.5t-38.5 -61t-63.5 -47t-94.5 -19t-94 19t-63 47t-38.5 61t-20.5 61.5t-8 47.5t-1 20z" />
    <glyph glyph-name="p" unicode="p" horiz-adv-x="452" 
d="M429 473q0 -27 -3.5 -54.5t-11.5 -53.5t-21 -50t-33 -43q-27 -25 -62 -40.5t-72 -15.5h-176v-216h-27v729h203q37 0 72 -15.5t62 -40.5q40 -38 54.5 -92.5t14.5 -107.5zM402 473q0 47 -13 97t-48 84q-23 21 -53 34.5t-62 13.5h-176v-459h176q32 0 62 14t53 35
q18 16 29.5 38t18.5 46t10 49t3 48z" />
    <glyph glyph-name="q" unicode="q" horiz-adv-x="493" 
d="M336 19q40 20 62 54.5t32.5 68t12.5 59t2 28.5v244q0 2 -1 20t-7 43.5t-18 54.5t-34 53.5t-56 41t-83 16.5t-82.5 -16.5t-55.5 -41t-34.5 -53.5t-18 -54.5t-6.5 -43.5t-1 -20v-244q0 -2 1 -20t7 -43.5t18 -54.5t34 -53.5t55.5 -41t82.5 -16.5q36 0 65 9l-101 170l24 13z
M472 473v-244q0 -1 -2 -28.5t-14 -65t-36.5 -76.5t-69.5 -62l56 -94l-32 -1l-49 84q-35 -12 -79 -12q-56 0 -94 18.5t-63 47t-38.5 61.5t-20.5 61t-8 47.5l-1 19.5v244l1.5 19.5t7.5 48t20 61.5t39 61t63.5 47t93.5 19q56 0 94.5 -19t63.5 -47t38.5 -61t20 -61.5t8 -48z" />
    <glyph glyph-name="r" unicode="r" horiz-adv-x="462" 
d="M55 243h176l11 1t28 5.5t37 14.5t39 28q61 61 61 181t-61 181q-19 18 -39.5 28t-37 14.5t-27.5 5l-11 0.5h-176v-459zM225 216h-170v-216h-27v729h203q1 0 14 -0.5t32 -6t42.5 -17t45.5 -32.5q69 -69 69 -200q0 -132 -69 -201q-29 -27 -58.5 -38.5t-49.5 -15.5l170 -218
h-34z" />
    <glyph glyph-name="s" unicode="s" horiz-adv-x="430" 
d="M215 27q41 0 69 12t46.5 30t28.5 39.5t14.5 40.5t5.5 32t1 15t-3 24.5t-18.5 48.5t-49 47t-94.5 21q-48 0 -80.5 14.5t-54 36t-33 47t-17 47.5t-6.5 36.5l-1 14.5l1 15t6.5 36.5t17 47t33 47t54.5 36t80 14.5t80 -14.5t54.5 -36t33 -47t17 -47t6.5 -36.5l1 -15h-27
q0 2 -1 15t-5.5 32t-14.5 40.5t-28.5 39.5t-46.5 30t-69 12t-69 -12t-46.5 -30t-28.5 -39.5t-14.5 -40.5t-5.5 -32t-1 -15t1 -15t5.5 -31.5t14.5 -40t28.5 -39.5t46.5 -30t69 -12q47 0 80 -12.5t54.5 -31t33 -40.5t17 -41t6.5 -31.5l1 -12.5q0 -1 -1 -15.5t-6.5 -36t-17 -47
t-33 -47t-54.5 -36t-80 -14.5q-48 0 -80.5 14.5t-54 36t-33 47t-17 47t-6.5 36.5l-1 15h27q0 -2 1 -15t5.5 -32t14.5 -40.5t28.5 -39.5t46.5 -30t69 -12z" />
    <glyph glyph-name="t" unicode="t" horiz-adv-x="525" 
d="M276 702v-702h-27v702h27zM276 716v-14h-27v14h27zM19 729h487v-27h-230v14h-27v-14h-230v27z" />
    <glyph glyph-name="u" unicode="u" horiz-adv-x="503" 
d="M477 256q0 -1 -2 -20t-9 -47.5t-21.5 -61.5t-39.5 -61t-62.5 -47t-90.5 -19q-54 0 -91.5 19t-62.5 47t-39.5 61t-21.5 61.5t-9 47.5t-2 20v473h27v-473q0 -2 1.5 -20t8 -43.5t19 -54.5t35 -53.5t55.5 -41t80 -16.5t80 16.5t55 41t34.5 53.5t19 54.5t8 44t1.5 20.5v472h27
v-473z" />
    <glyph glyph-name="v" unicode="v" horiz-adv-x="509" 
d="M488 729l-234 -729l-233 729h28l205 -641l206 641h28z" />
    <glyph glyph-name="w" unicode="w" horiz-adv-x="566" 
d="M283 456l-257 -456v727h27v-624l230 408l230 -408v624h27v-727z" />
    <glyph glyph-name="x" unicode="x" horiz-adv-x="491" 
d="M246 330l-189 -330h-31l204 358l-212 371h31l197 -344l196 344h31l-212 -371l204 -358h-31z" />
    <glyph glyph-name="y" unicode="y" horiz-adv-x="499" 
d="M250 273l201 456h30l-218 -486v-243h-27v243l-218 486h30z" />
    <glyph glyph-name="z" unicode="z" horiz-adv-x="547" 
d="M56 27h461v-27h-512l486 702h-461v27h512z" />
  </font>
</defs>
</svg>
